<?xml version="1.0" standalone="no"?>
<!DOCTYPE svg PUBLIC "-//W3C//DTD SVG 20010904//EN"
 "http://www.w3.org/TR/2001/REC-SVG-20010904/DTD/svg10.dtd">
<svg version="1.0" xmlns="http://www.w3.org/2000/svg"
 width="170.000000pt" height="155.000000pt" viewBox="0 0 170.000000 155.000000"
 preserveAspectRatio="xMidYMid meet">

<g transform="translate(0.000000,155.000000) scale(0.100000,-0.100000)"
fill="#000000" stroke="none">
<path d="M0 775 l0 -775 850 0 850 0 0 775 0 775 -850 0 -850 0 0 -775z m902
674 c11 -6 26 -26 34 -45 28 -68 -27 -134 -100 -120 -44 8 -66 38 -66 89 0 68
70 109 132 76z m-115 -230 c121 -13 245 -49 350 -101 109 -54 123 -68 114
-110 -5 -18 -18 -52 -30 -76 l-22 -43 -42 34 c-153 125 -344 208 -517 223 -77
7 -183 -15 -248 -51 l-43 -24 23 28 c29 36 102 84 150 100 20 7 65 16 100 20
35 5 64 9 66 10 1 0 46 -4 99 -10z m482 -35 c51 -20 97 -72 111 -125 44 -162
-122 -394 -371 -520 -63 -31 -177 -65 -187 -54 -3 3 -8 34 -10 68 l-4 63 75
12 c116 20 225 77 312 165 109 110 149 218 110 300 -20 43 -39 56 -130 91
l-70 27 62 -5 c34 -3 80 -13 102 -22z m-535 -124 c131 -33 336 -154 383 -227
14 -20 11 -24 -39 -62 l-53 -40 -30 37 c-62 77 -132 134 -210 172 -97 47 -147
59 -244 60 -161 0 -227 -75 -196 -224 8 -39 15 -73 15 -76 -1 -3 -12 17 -27
44 -26 52 -41 144 -29 190 13 52 85 115 156 137 50 15 195 9 274 -11z m729
-175 c-1 -80 -30 -170 -84 -262 -51 -87 -227 -259 -328 -321 l-84 -51 -28 20
c-25 18 -79 94 -79 112 0 3 25 15 55 26 293 110 513 348 516 560 l1 56 16 -35
c10 -23 16 -60 15 -105z m-889 -17 c-41 -229 17 -495 138 -642 17 -20 53 -53
82 -72 55 -37 53 -41 -16 -20 -137 41 -269 219 -327 439 -24 92 -45 277 -36
318 8 34 39 47 116 48 l55 1 -12 -72z m182 27 c46 -20 55 -28 49 -42 -52 -124
-69 -222 -55 -328 25 -190 119 -325 227 -325 53 0 71 9 142 69 60 51 56 32 -8
-41 -23 -25 -62 -56 -87 -68 -136 -66 -296 72 -362 314 -24 87 -23 310 1 389
10 31 22 57 27 57 5 0 35 -11 66 -25z m727 -376 c28 -13 47 -48 47 -85 0 -37
-51 -84 -90 -84 -43 0 -90 47 -90 90 0 22 9 41 29 61 31 31 64 36 104 18z
m-1096 -39 c76 -46 44 -160 -46 -160 -32 0 -44 6 -65 31 -43 51 -31 109 27
134 42 19 46 18 84 -5z"/>
</g>
</svg>
