<?xml version="1.0" encoding="UTF-8"?>
<svg xmlns="http://www.w3.org/2000/svg" xmlns:xlink="http://www.w3.org/1999/xlink" viewBox="0 0 601.486895 342.12259331">
  <defs>
    <style>
      .cls-1 {
        mix-blend-mode: overlay;
        opacity: .75;
      }

      .cls-2, .cls-3 {
        fill: #a7a9ac;
      }

      .cls-4 {
        isolation: isolate;
      }

      .cls-5 {
        fill: url(#_Безымянный_градиент_176);
      }

      .cls-6, .cls-7 {
        fill: #e6e7e8;
      }

      .cls-3, .cls-7 {
        mix-blend-mode: multiply;
      }
    </style>
    <linearGradient id="_Безымянный_градиент_176" data-name="Безымянный градиент 176" x1="300.78048454" y1="342.12259331" x2="300.78048454" y2="0" gradientUnits="userSpaceOnUse">
      <stop offset=".07978723" stop-color="#12174f"/>
      <stop offset=".40691489" stop-color="#161c58"/>
      <stop offset=".71542553" stop-color="#151a56"/>
      <stop offset=".97340426" stop-color="#12173e"/>
    </linearGradient>
  </defs>
  <g class="cls-4">
    <g id="_Слой_1" data-name="Слой 1">
      <path class="cls-5" d="M.07407407,342.12259331C.18311344,228.21689383,.29215492,114.31120819,.40119428,.40551909c200.36187637-.1351713,400.72378012-.27034606,601.08570072-.40551909-.02250657,113.65214707-.04494576,227.30428375-.06745233,340.95643427-200.44844286,.38872891-400.89691942,.77743013-601.3453686,1.16615904Z"/>
      <g class="cls-1">
        <g>
          <g>
            <polygon class="cls-6" points="0 170.5491836 0 .44444444 172.66268566 .44444444 0 170.5491836"/>
            <polygon class="cls-2" points="172.66268566 .44444444 172.66268566 170.5491836 0 170.5491836 172.66268566 .44444444"/>
            <polygon class="cls-7" points="0 .44444444 172.66268566 .44444444 172.66268566 170.5491836 0 .44444444"/>
            <polygon class="cls-3" points="172.66268566 170.5491836 0 170.5491836 0 .44444444 172.66268566 170.5491836"/>
          </g>
          <g>
            <polygon class="cls-6" points="172.66268566 170.5491836 172.66268566 .44444444 345.32847384 .44444444 172.66268566 170.5491836"/>
            <polygon class="cls-2" points="345.32847384 .44444444 345.32847384 170.5491836 172.66268566 170.5491836 345.32847384 .44444444"/>
            <polygon class="cls-7" points="172.66268566 .44444444 345.32847384 .44444444 345.32847384 170.5491836 172.66268566 .44444444"/>
            <polygon class="cls-3" points="345.32847384 170.5491836 172.66268566 170.5491836 172.66268566 .44444444 345.32847384 170.5491836"/>
          </g>
          <g>
            <polygon class="cls-6" points="345.32847384 170.5491836 345.32847384 .44444444 517.98216217 .44444444 345.32847384 170.5491836"/>
            <polygon class="cls-2" points="517.98216217 .44444444 517.98216217 170.5491836 345.32847384 170.5491836 517.98216217 .44444444"/>
            <polygon class="cls-7" points="345.32847384 .44444444 517.98216217 .44444444 517.98216217 170.5491836 345.32847384 .44444444"/>
            <polygon class="cls-3" points="517.98216217 170.5491836 345.32847384 170.5491836 345.32847384 .44444444 517.98216217 170.5491836"/>
          </g>
          <g>
            <polygon class="cls-6" points="601.44444444 .44444444 517.98216217 .44444444 517.98216217 170.5491836 601.44444444 88.3265746 601.44444444 .44444444"/>
            <polygon class="cls-2" points="601.44444444 88.3265746 517.98216217 170.5491836 601.44444444 170.5491836 601.44444444 88.3265746"/>
            <polygon class="cls-7" points="601.44444444 .44444444 517.98216217 .44444444 601.44444444 82.67316656 601.44444444 .44444444"/>
            <polygon class="cls-3" points="601.44444444 82.67316656 517.98216217 .44444444 517.98216217 170.5491836 601.44444444 170.5491836 601.44444444 82.67316656"/>
          </g>
          <g>
            <polygon class="cls-6" points="0 340.6536171 0 170.5491836 172.66268566 170.5491836 0 340.6536171"/>
            <polygon class="cls-2" points="172.66268566 170.5491836 172.66268566 340.6536171 0 340.6536171 172.66268566 170.5491836"/>
            <polygon class="cls-7" points="0 170.5491836 172.66268566 170.5491836 172.66268566 340.6536171 0 170.5491836"/>
            <polygon class="cls-3" points="172.66268566 340.6536171 0 340.6536171 0 170.5491836 172.66268566 340.6536171"/>
          </g>
          <g>
            <polygon class="cls-6" points="172.66268566 340.6536171 172.66268566 170.5491836 345.32847384 170.5491836 172.66268566 340.6536171"/>
            <polygon class="cls-2" points="345.32847384 170.5491836 345.32847384 340.6536171 172.66268566 340.6536171 345.32847384 170.5491836"/>
            <polygon class="cls-7" points="172.66268566 170.5491836 345.32847384 170.5491836 345.32847384 340.6536171 172.66268566 170.5491836"/>
            <polygon class="cls-3" points="345.32847384 340.6536171 172.66268566 340.6536171 172.66268566 170.5491836 345.32847384 340.6536171"/>
          </g>
          <g>
            <polygon class="cls-6" points="345.32847384 340.6536171 345.32847384 170.5491836 517.98216217 170.5491836 345.32847384 340.6536171"/>
            <polygon class="cls-2" points="517.98216217 170.5491836 517.98216217 340.6536171 345.32847384 340.6536171 517.98216217 170.5491836"/>
            <polygon class="cls-7" points="345.32847384 170.5491836 517.98216217 170.5491836 517.98216217 340.6536171 345.32847384 170.5491836"/>
            <polygon class="cls-3" points="517.98216217 340.6536171 345.32847384 340.6536171 345.32847384 170.5491836 517.98216217 340.6536171"/>
          </g>
          <g>
            <polygon class="cls-6" points="601.44444444 170.5491836 517.98216217 170.5491836 517.98216217 340.6536171 601.44444444 258.42520064 601.44444444 170.5491836"/>
            <polygon class="cls-2" points="601.44444444 258.42520064 517.98216217 340.6536171 601.44444444 340.6536171 601.44444444 258.42520064"/>
            <polygon class="cls-7" points="601.44444444 170.5491836 517.98216217 170.5491836 601.44444444 252.77760006 601.44444444 170.5491836"/>
            <polygon class="cls-3" points="601.44444444 252.77760006 517.98216217 170.5491836 517.98216217 340.6536171 601.44444444 340.6536171 601.44444444 252.77760006"/>
          </g>
        </g>
      </g>
    </g>
  </g>
</svg>