<?xml version="1.0" encoding="UTF-8"?>
<svg xmlns="http://www.w3.org/2000/svg" viewBox="0 0 605.333333333 343.407407407">
  <defs>
    <style>
      .cls-1, .cls-2 {
        fill: #a7a9ac;
      }

      .cls-3 {
        isolation: isolate;
      }

      .cls-4 {
        fill: #e6cfac;
      }

      .cls-5 {
        mix-blend-mode: overlay;
        opacity: .3;
      }

      .cls-6, .cls-7 {
        fill: #e6e7e8;
      }

      .cls-2, .cls-7 {
        mix-blend-mode: multiply;
      }
    </style>
  </defs>
  <g class="cls-3">
    <g id="_Слой_1" data-name="Слой 1">
      <g>
        <path class="cls-4" d="M0,343.407407407C.109750178,229.073944157,.219502476,114.740494807,.329252654,.407041981c201.668002872-.135678923,403.336033298-.271361321,605.00408068-.407041981-.022653288,114.078958634-.045238752,228.157906843-.06789204,342.236868952-201.755133674,.390188752-403.510301261,.780349704-605.265441294,1.170538455Z"/>
        <g class="cls-5">
          <g>
            <g>
              <polygon class="cls-6" points="1.412087682 172.19400855 1.412087682 1.35135686 174.680831167 1.35135686 1.412087682 172.19400855"/>
              <polygon class="cls-1" points="174.680831167 1.35135686 174.680831167 172.19400855 1.412087682 172.19400855 174.680831167 1.35135686"/>
              <polygon class="cls-7" points="1.412087682 1.35135686 174.680831167 1.35135686 174.680831167 172.19400855 1.412087682 1.35135686"/>
              <polygon class="cls-2" points="174.680831167 172.19400855 1.412087682 172.19400855 1.412087682 1.35135686 174.680831167 172.19400855"/>
            </g>
            <g>
              <polygon class="cls-6" points="174.680831167 172.19400855 174.680831167 1.35135686 347.952688067 1.35135686 174.680831167 172.19400855"/>
              <polygon class="cls-1" points="347.952688067 1.35135686 347.952688067 172.19400855 174.680831167 172.19400855 347.952688067 1.35135686"/>
              <polygon class="cls-7" points="174.680831167 1.35135686 347.952688067 1.35135686 347.952688067 172.19400855 174.680831167 1.35135686"/>
              <polygon class="cls-2" points="347.952688067 172.19400855 174.680831167 172.19400855 174.680831167 1.35135686 347.952688067 172.19400855"/>
            </g>
            <g>
              <polygon class="cls-6" points="347.952688067 172.19400855 347.952688067 1.35135686 521.212402646 1.35135686 347.952688067 172.19400855"/>
              <polygon class="cls-1" points="521.212402646 1.35135686 521.212402646 172.19400855 347.952688067 172.19400855 521.212402646 1.35135686"/>
              <polygon class="cls-7" points="347.952688067 1.35135686 521.212402646 1.35135686 521.212402646 172.19400855 347.952688067 1.35135686"/>
              <polygon class="cls-2" points="521.212402646 172.19400855 347.952688067 172.19400855 347.952688067 1.35135686 521.212402646 172.19400855"/>
            </g>
            <g>
              <polygon class="cls-6" points="604.967643238 1.35135686 521.212402646 1.35135686 521.212402646 172.19400855 604.967643238 89.614718752 604.967643238 1.35135686"/>
              <polygon class="cls-1" points="604.967643238 89.614718752 521.212402646 172.19400855 604.967643238 172.19400855 604.967643238 89.614718752"/>
              <polygon class="cls-7" points="604.967643238 1.35135686 521.212402646 1.35135686 604.967643238 83.93678629 604.967643238 1.35135686"/>
              <polygon class="cls-2" points="604.967643238 83.93678629 521.212402646 1.35135686 521.212402646 172.19400855 604.967643238 172.19400855 604.967643238 83.93678629"/>
            </g>
            <g>
              <polygon class="cls-6" points="1.412087682 343.036353258 1.412087682 172.19400855 174.680831167 172.19400855 1.412087682 343.036353258"/>
              <polygon class="cls-1" points="174.680831167 172.19400855 174.680831167 343.036353258 1.412087682 343.036353258 174.680831167 172.19400855"/>
              <polygon class="cls-7" points="1.412087682 172.19400855 174.680831167 172.19400855 174.680831167 343.036353258 1.412087682 172.19400855"/>
              <polygon class="cls-2" points="174.680831167 343.036353258 1.412087682 343.036353258 1.412087682 172.19400855 174.680831167 343.036353258"/>
            </g>
            <g>
              <polygon class="cls-6" points="174.680831167 343.036353258 174.680831167 172.19400855 347.952688067 172.19400855 174.680831167 343.036353258"/>
              <polygon class="cls-1" points="347.952688067 172.19400855 347.952688067 343.036353258 174.680831167 343.036353258 347.952688067 172.19400855"/>
              <polygon class="cls-7" points="174.680831167 172.19400855 347.952688067 172.19400855 347.952688067 343.036353258 174.680831167 172.19400855"/>
              <polygon class="cls-2" points="347.952688067 343.036353258 174.680831167 343.036353258 174.680831167 172.19400855 347.952688067 343.036353258"/>
            </g>
            <g>
              <polygon class="cls-6" points="347.952688067 343.036353258 347.952688067 172.19400855 521.212402646 172.19400855 347.952688067 343.036353258"/>
              <polygon class="cls-1" points="521.212402646 172.19400855 521.212402646 343.036353258 347.952688067 343.036353258 521.212402646 172.19400855"/>
              <polygon class="cls-7" points="347.952688067 172.19400855 521.212402646 172.19400855 521.212402646 343.036353258 347.952688067 172.19400855"/>
              <polygon class="cls-2" points="521.212402646 343.036353258 347.952688067 343.036353258 347.952688067 172.19400855 521.212402646 343.036353258"/>
            </g>
            <g>
              <polygon class="cls-6" points="604.967643238 172.19400855 521.212402646 172.19400855 521.212402646 343.036353258 604.967643238 260.45123081 604.967643238 172.19400855"/>
              <polygon class="cls-1" points="604.967643238 260.45123081 521.212402646 343.036353258 604.967643238 343.036353258 604.967643238 260.45123081"/>
              <polygon class="cls-7" points="604.967643238 172.19400855 521.212402646 172.19400855 604.967643238 254.779130999 604.967643238 172.19400855"/>
              <polygon class="cls-2" points="604.967643238 254.779130999 521.212402646 172.19400855 521.212402646 343.036353258 604.967643238 343.036353258 604.967643238 254.779130999"/>
            </g>
          </g>
        </g>
      </g>
    </g>
  </g>
</svg>