<?xml version="1.0" encoding="UTF-8"?>
<svg id="_1" data-name="1" xmlns="http://www.w3.org/2000/svg" viewBox="0 0 1466.03582606 893.65371878">
  <defs>
    <style>
      .cls-1 {
        fill: #c3dfe9;
        opacity: .14;
      }
    </style>
  </defs>
  <path class="cls-1" d="M327.25333017,580.28483578c-1.46988945-65.92053531-1.57816324-122.19206209-.29815668-168.81599598-4.42441714-1.54845271-7.04007402-.82976922-7.79690503,2.13185858l-.0891573,7.77218752c-.04195972,3.6925049-1.17761716,5.900268-3.41940464,6.62312113-5.048428,53.24410977-8.78812181,89.12325912-11.21926066,107.58504271-2.63397972,36.27869183-2.66571722,136.58008767-.09747005,301.00541005,2.93994416,1.50616566,5.90122358,2.28874932,8.86997828,2.3218061,4.44111972,.05119904,8.90384352-1.75716871,13.38693497-5.39936259,1.77549154-26.65616483,2.85336603-55.51558379,3.20731916-86.60348191,.26969732-23.6780237-.59520621-79.23502758-2.54387806-166.62058562Z"/>
  <path class="cls-1" d="M480.95817569,444.31452328c-2.54777595-37.06022833-3.76282042-59.6445543-3.66931328-67.80393157-2.16180193-5.18959944-7.6882801-7.47327908-16.57853446-6.85191494-11.13330228,1.37173394-17.79543788,1.2958174-19.99885115-.22702978-19.33766111,6.4415249-29.01070039,12.27127337-29.06990233,17.43526728l28.85541751,1.43931158c9.50023335,10.48919828,14.49585073,27.59038935,14.97478025,51.27676434,4.97822804,16.35132782,8.09479901,35.26475296,9.34796089,56.73847537,.5454476,15.55238997-.05207839,36.28253415-1.81921863,62.19007214-1.86879742,32.56843719-2.83176195,53.65601702-2.94127491,63.26114266l-1.11006393-.01235274c-.01670259,1.49725367-.24391189,4.43940083-.65654802,8.8765191-.43750076,4.43678189-.2778567,7.40814351,.45441595,8.88799583,.69726867,2.22900677,2.90503177,3.36466422,6.62328932,3.40697233,8.1185216-64.31288066,13.45296566-108.69525376,15.95203016-133.09718679,1.6489156-15.52714484,1.53557175-37.34960321-.36418737-65.5201048Z"/>
  <path class="cls-1" d="M488.95947066,814.23451059c10.37935801-2.10313963,15.23319343-5.37882674,14.54820995-9.82901759,2.31327461-8.10803111-.22293637-13.32756484-7.59566097-15.63266836-15.58581916,3.54173099-37.10742591,6.62745858-64.52399525,9.25951141-30.39898074,2.62368047-51.16175375,6.07938866-62.31533211,10.39429284,41.41266282,4.19025513,81.37977853,6.11739954,119.88677837,5.8078817Z"/>
  <path class="cls-1" d="M672.55112294,448.71835083c-.41943803,4.28337028-1.11791527,15.60271862-2.11117066,34.39925997-2.35558272,11.82628865-3.57115815,21.05762446-3.64707469,27.71976007,11.10326734,.12622755,17.04149361-2.02722309,17.84043146-6.46000353,5.29911239-11.76692758,8.35301093-19.1437332,9.13559458-22.10501262l2.81504735-52.15787532c-4.3652152-6.71244662-5.80814439-11.53260606-4.27694591-14.48464616-22.15532363-4.69446285-38.43074692-6.37748239-48.81542236-4.99739715-14.09760354,2.05994349-20.44461161,6.06772305-19.01403516,11.99794642,1.4048238,5.92987498,6.56062556,8.95816799,15.44287701,9.05967804l21.09558273,.24009034c6.78976734,1.93394949,10.52057678,7.67946223,11.53511564,16.78819994Z"/>
  <path class="cls-1" d="M850.66533663,358.55420777l2.48581172-23.29099309c-3.69693431-.7650021-8.18837706,3.62581862-13.47520425,13.17156213-5.38388774,16.98297843-10.41418216,36.91329674-15.11700831,59.81813523-.15182106,13.32338319,2.05907616,45.93812994,6.65912908,97.79397138,2.91827254,2.2546123,4.73989306,5.60639615,5.43820888,10.05587918,.5454476,15.55238997,1.94606869,24.09080695,4.14983034,25.58790149,.86062737-75.50005543,1.73620197-120.65685015,2.65300407-135.44338307,4.67810865-20.68382261,7.08000093-36.5898059,7.20622848-47.69307324Z"/>
  <path class="cls-1" d="M824.97241272,79.48978366c.58829535,11.85989708,.4704311,22.21364956-.35395314,31.08789812,1.31966795,13.34062541,1.95007014,23.72936985,1.86581432,31.13924427,2.85160733,8.16724506,6.86773817,13.7656263,12.02353993,16.79391931,2.69943788,21.5163809,2.48841487,40.003758-.63200175,55.51454865-3.12981508,14.03894123-14.50276773,37.58984935-34.11867872,70.7051297-17.38760298,30.17178278-26.53955176,53.74829642-27.46952707,70.75600141-1.14488808,34.79780437-2.85735546,55.87613287-5.16175116,63.26218982,1.72323257,43.71401264,7.17238723,84.47458964,16.37339585,122.3344847,4.94087696,20.81928042,11.10612062,32.74218965,18.48327464,35.77033554-5.51739464-37.09507317-7.74019322-101.52564989-6.6943276-193.34448388,.18542949-16.26726125,7.11679034-38.78401293,20.76942118-67.49996212,13.65263084-28.71594919,20.92464518-50.48024077,21.84180768-65.29341436,.80766964-7.37610686,2.83053421-21.78884994,6.04460511-43.2376656,2.42314796-17.73979742,3.69827372-32.16087979,3.82450127-43.26414713,1.47148901,.01724222,4.09596927-2.53542358,7.86045681-7.68304223,2.99026719-2.93585409,6.3293379-3.62077001,10.01792091-2.10714108,3.89303741,48.18073789,9.45178459,80.44642136,16.67711754,96.79795044,18.02409024,40.95645209,30.66604002,69.22253911,37.89937587,84.85119401,14.42864589,33.47725745,22.61675078,62.82973805,24.55046673,88.03060893,5.67654387,20.80081084,6.92519677,40.44125876,3.77117171,58.89592747l-36.90573322,21.78794953c-11.19588647,8.03316173-16.90379267,21.65530624-17.12262733,40.91707484-1.03591477,25.16691406-2.31851581,40.3375233-3.84920676,45.48427499,2.90068193,3.75185396,4.33960967,8.93345049,4.26370515,15.59469808-.05031101,4.44113173-.85848818,9.622527-2.39754244,15.51879355l-2.22012786-.02470549c4.14284579,89.65702005,7.45595984,157.06977244,9.91056502,202.26451341-12.59215771-.892445-36.63561995-.80470667-72.19467272,.28810265-31.85376717,1.10918458-55.91497916,.47370033-72.1690672-1.93290122,20.42373977-38.27092296,31.78780149-61.09896891,34.09307319-68.48412582l1.98250442-76.62353128c-3.57870966-11.14539525-4.94468717-20.40632602-4.12423683-27.80801734l-15.1648284-33.48632858c-6.49396035-14.87080076-12.67589458-25.29734433-18.52150173-31.30328297-19.61396304-32.8137654-40.48188773-54.14960666-62.57854906-64.03382808-12.65918332,5.04682843-20.12409909,11.98559367-22.44608539,20.86889229-1.5400894,3.67490228-2.30492331,7.35940427-2.34723142,11.07766182-.05955033,5.18974656,1.71071202,10.76218589,5.36140432,16.71800277,7.90589903,20.07778953,12.17849511,34.94962543,12.81760899,44.56310237,1.33692218,11.86824837,.86161028,21.85745033-1.45166432,29.96548144-5.34157963,13.26472088-9.50953154,20.98972284-12.47812711,23.1771303l-82.16228262-2.04588801-8.97148833,6.56044536c-.79485683,5.18157547-1.23662786,11.11577922-1.3125444,17.77791483-.12710356,11.10236731,1.20988618,24.08173582,3.99802129,38.91039665,13.07500911,23.10715077,21.75112704,41.33461284,26.04043771,54.70830704,2.21265258,.77423236,4.04157724,1.15691313,5.53883091,1.17361571-9.30251867-28.97764361-14.61797383-49.74870035-15.94564468-62.36645157-.71590643-2.95224137-1.04738816-5.56443643-1.02179465-7.78455228,.0247175-2.22101589,1.34056391-5.53657238,3.99908055-9.94863677,2.63275198-4.41152476,3.59641262-8.48058555,2.91549815-12.18109335,18.58000824-7.9492543,43.06594028-11.72496748,73.4309642-11.37901724,10.3546405,.11787626,21.09158128,.60152744,32.18648531,1.47726985,6.68685311-2.14509935,9.3240345-5.83358173,7.89877548-11.04075071-.87077337,11.84371107-1.77469176-6.29548171-2.71143081-54.44155496,.05032303-4.44201976-2.63901226-12.06438862-8.06798182-22.86888262-5.42930594-10.77962938-7.3744438-19.11668932-5.82172082-25.03852832,11.70310698,11.98628081,21.19140352,24.67091052,28.4503449,38.07856154,10.94219495,14.19911359,18.91164576,28.72571947,23.93321706,43.58015401-.09261912,8.15938928,1.43545319,20.21052512,4.58509296,36.15430754,3.14929138,15.96953507,4.67825171,28.02068292,4.58509296,36.15430754-.38790996,34.05752883-7.31885486,57.659648-20.79405911,70.83121013-.8254314,6.6537723-3.8620757,12.55820089-9.08528357,17.66388089l-16.85701103,16.49025612c-1.50117556,1.45496663-8.56678755,3.95732142-21.18385201,7.53210919-8.90785698,2.11949382-12.29847511,7.27128211-10.16972996,15.42963625,188.11563126-4.51973392,329.19951443-7.35490136,423.25163748-8.50461428,1.52180003-4.42388952-4.69774408-11.54511794-18.63502814-21.33583221-81.47682707,1.31894736-137.02593972,2.51969151-166.64660709,3.67951443l-6.59823544-5.65285284c-3.01372151-60.72155849-4.23598111-115.5337688-3.6795355-164.41282251,.49742291-43.66265447,2.40803292-82.14494882,5.75668266-115.44565865,2.33052884-9.58040814,13.15165787-17.61775153,32.49021902-24.06015243,5.5163595,34.87370889,7.98420545,78.95839795,7.3769212,132.25193071-1.51645586,67.38472019-.90816467,111.44691715,1.82572553,132.18926695,5.55155548-33.97257424,8.72455801-83.57118744,9.46730913-148.71660237,.40427616-35.52991787,.11111251-75.50841874-.85512992-119.96359495,5.26550396-8.82304952,11.2467251-12.44764078,17.89161849-10.90023523,22.33683124-10.10112919,33.61662513-25.51841269,33.85271403-46.25255833,2.24572137-2.19541036,7.98599693-3.96340217,17.27304075-5.35567196,9.26005476-1.36687755,15.0304328-3.52171071,17.28539349-6.46573589-4.44111972-.05119904-11.28450346-1.23891041-20.50258649-3.56542579-9.24473571-2.32598775-16.06146677-3.51422675-20.5025985-3.56453776-7.41076244-.08426783-13.73617846,2.06483297-18.96380372,6.44658256-.75289711,1.48907057-1.52277963,3.31453341-2.28367964,5.52647816,.0080029-.72287419,3.67498184,2.65032152,10.98851653,10.11853093-17.88273957,10.17826108-28.67888229,14.85860381-32.36213585,14.06714124-4.69322369-43.72132879-8.04776924-73.40632627-10.09135854-88.97543084-1.35467193-12.59147095-4.15908167-24.83839864-8.46474654-36.74059182-19.51777042-42.41907125-35.81825626-73.69763672-48.9144535-93.85985321-10.65614343-39.34863831-14.80597378-64.9365398-12.45039106-76.76282845,1.01816502-25.89013664,2.35630293-45.88816732,4.01372896-59.94347476-2.91843167-4.47507654-6.58533105-6.73804013-11.0273508-6.78836316-3.71736952-.0422961-9.30339802,2.86377082-16.76839336,8.69230394-7.46535574,5.85517379-12.3139533,8.74368317-14.53495717,8.71807765-4.97037226-19.29555427-7.27476462-43.75181178-6.93716568-73.36820887,.13421844-11.82525351,.63947369-24.42176106,1.53992159-37.73679296,2.23737008-1.44678352,4.82816234-2.16580338,7.79780506-2.13273459,3.70493721,.04212791,9.96515916,2.51514721,18.80553046,7.41939427,8.8275906,4.92983153,14.70870528,7.78585891,17.67033308,8.54268992,2.24572137-2.19541036,3.37702898-4.01598372,3.39374357-5.51412542,.0163542-1.47150103-.70911786-3.51969964-2.15066352-6.14424745-1.46853472-2.59915557-2.16425268-5.00844288-2.13864715-7.22944676,.0163542-1.47150103,.39539391-2.96562926,1.16037494-4.42877899-8.10819024-4.53373885-25.86034041-5.84682287-53.26890684-3.93764423-12.70201905,8.7384333-19.15785332,24.59845542-19.41831133,47.52786429-.00923932,.74861482,.59575862,11.11125823,1.86616271,31.11349163Z"/>
  <path class="cls-1" d="M1169.04758456,287.19158919c-2.22918626,4.71541443-3.85991172,9.04990007-4.50597889,12.75288429-.90879919,14.06365873-1.44766287,29.60404435-1.64144366,46.61993243-.37155576,32.5860278,.67496506,69.99099064,3.16352706,112.2161009,5.31582699-13.26506927,9.43800964-33.95463626,12.36655998-62.06958897,2.9024493-28.08954845,6.4612547-48.03710898,10.67551617-59.84180558,2.32369128-6.51448659,5.282137-13.72915753,8.63988723-21.37541348-11.20190516-7.7384178-20.79421813-17.33001872-28.69806789-28.3021096Z"/>
  <path class="cls-1" d="M1070.72675822,539.86723727c16.91934708,9.82483928,27.83247469,26.63215849,32.75253594,50.36884449,3.49837573,17.08360046,5.46604849,39.31484063,5.90301828,66.69372051-.37990705,33.33465464-.66630696,58.509932-.86008774,75.52582009,.26739899,39.9790405,3.75793095,60.00597938,10.42006655,60.08189592,4.71916833-24.3754515,7.54169965-45.44142725,8.49245856-63.19759088,2.9804816-66.61883912,3.1371039-113.25530595,.48354762-139.93586097-.72302131-2.22935516-1.01289171-8.50830248-.89467908-18.88780761,.11822465-10.38039315-1.6654376-17.06324481-5.32433408-20.04908259-44.12061113-27.17847343-69.80434542-47.45857524-77.04995445-60.86693408,.62135213,8.89114238,3.85988037,18.19872205,9.67630851,27.87158113,2.17781975,3.74296303,7.64508396,11.19152461,16.40111988,22.39541398Z"/>
  <path class="cls-1" d="M112.44968435,522.29012736c.72287419,.0080029,9.64797339-3.58297993,26.77388196-10.7996132,10.40495152-4.32325548,14.92598923-11.29562914,13.56347354-20.94376167-.6894249-5.1723452-4.71872896-8.54955438-12.09945647-10.13178371-5.18175567-.7815365-10.74094222-.12221409-16.6791685,2.03123655-15.73016494,16.11558731-28.17530282,35.21284277-37.31124579,57.34360803l-1.26188499,13.31103045c2.20376165,1.49709454,3.50298504,.78902384,3.91169929-2.17642522,.39539391-2.96562926,2.08215543-3.69510276,5.02176322-2.16407248,8.3062413-13.97957111,14.3203721-22.79426933,18.08093775-26.47021877Z"/>
  <path class="cls-1" d="M1304.86828098,753.56922349l7.77219954,.08826928c19.26961237-2.72450377,31.65242286-16.29542818,37.10779774-40.6635846l11.67213326-48.75176995c.12711557-11.10325533,.64837663-25.14551126,1.59113264-42.1788007,.90830368-16.25925835-.41626576-29.23757065-3.9988973-38.91129669-6.02264123,7.34286082-8.68099873,13.97538945-8.01236945,19.89708133l-2.53701075,27.73211281c-17.7538293,63.47997694-32.28158335,104.42682695-43.59498567,122.78798852Z"/>
  <path class="cls-1" d="M1204.91581036,752.43108713c-.60907895-11.11143843-1.34047224-44.43270518-2.19204343-99.99041688-.26436513-41.45072173-2.47967974-74.78939888-6.63441157-100.01498726,.26169442-22.95514951-13.60383369-41.26702653-41.57115605-54.91130608-2.9440372-2.25407267-26.91609188-10.66174445-71.90427136-25.24861182,.06755323-5.91262075,3.11050261-14.58099525,9.18034142-26.0035387,6.04284975-11.3971512,9.11155178-20.06517731,9.17910501-25.97779806,.05866231-5.18975857-.99183928-10.3927459-3.15329283-15.60809798-8.80723495-6.76276965-20.25884575-10.22440283-34.31842346-10.384407l-51.14932144,6.07955685c-15.60803042,4.26441297-21.62659063,12.35606882-18.05623226,24.2500909,7.38909082,.83271447,19.99394966,.58934288,37.7757068-.68001405,6.66961089-.67361033,15.90494815,.180528,27.73212482,2.53612273,14.78259903,2.38935933,21.40677637,5.79634367,19.8840763,10.2211092-9.6731864,3.6083962-14.58622376,12.04807723-14.73716881,25.37236046-.05119904,4.44111972,.27324738,8.88643311,.95824287,13.33573594,8.67176809,18.61465181,17.45659051,28.34720834,26.33083907,29.17159258,25.80553243,8.45379209,42.41410183,13.80774553,49.78682643,16.11284905,18.42479291,6.87245079,29.03515774,18.48512196,31.81901057,34.81209267l2.30378771,187.71616835-1.11006393-.01235274c1.79025819,37.77473921,2.57595193,66.29432515,2.35622925,85.55608174-8.30197103,12.48214924-13.55112079,19.83369774-15.79684217,22.0291081-15.63700619,7.98196269-25.32309698,12.67554619-29.04527641,14.10490729-103.62379941-4.12414232-260.26442238-.35633754-469.92188093,11.30430236,241.34215043,2.02593574,427.1198016,7.83436079,557.34502542,17.45208401,11.87644053-4.30601326,17.49118798-9.79453315,16.84423033-16.46467166-24.37241764-6.19084956-42.84358766-10.09472585-55.40075341-11.73543728,13.44959873-10.95055826,20.31387842-28.64004467,20.59227543-53.09244785,.37955866-33.30890199,1.34259075-53.28536167,2.90331664-59.93007486Z"/>
  <path class="cls-1" d="M1408.54157486,458.19899732c-10.44043493-6.3159025-20.03116631-14.12045413-28.39865395-23.05688032,5.53516139,63.42200021,7.94010784,130.60486133,7.13108796,201.63360428-.32924765,28.86777025-1.05002287,58.11749239-2.10960798,87.72589859-2.28891751,5.91365589-3.71288529,16.43359325-4.24651111,31.58680113-.56060286,15.1777121-2.71614452,26.46402604-6.49256886,33.80707612-40.85921232,10.63926065-87.54180851,14.54901266-140.07532928,11.72977164-6.75475473,8.08347274-9.78706121,13.60159961-9.0720428,16.55382897,2.92717548,1.5308621,4.92669335,6.17647336,5.948488,13.96102564,1.02179465,7.78455228,2.99209806,12.8170169,5.93613526,15.07108957l113.23781598,3.5107931c51.81369246,1.33866887,89.21064038,1.01591026,112.19050739-.94341121l3.4449306-9.95435712c-14.04729253-2.38118824-37.5334372-4.68845033-70.44687772-6.9225181-32.92622122-2.20848332-57.87639164-5.28162647-74.86329195-9.193845,25.23876159-6.37590389,44.16852893-10.96308786,56.80299474-13.78890041,15.61941558-6.48472103,24.29198345-20.82171577,26.03013592-43.01081602,1.84269638-32.54303293,3.52564837-49.92957637,5.03517522-52.13316983,2.01654948-46.64150343,3.22857485-88.43729604,3.6495536-125.46446759,.52337682-45.90941099-.14446469-84.78186139-2.0022641-116.64486788-.53176665-3.43292282-1.10022115-8.29010225-1.69967691-14.46665555Z"/>
  <path class="cls-1" d="M86.55062443,845.21061453c8.81434983,6.03988344,20.61095194,9.86767501,35.41523461,11.50769968,32.53468164,2.59132322,57.47465788-9.33888977,74.81995276-35.792415,2.3052717-7.38515692,3.84467435-13.30717612,4.64450022-17.73994455l-3.26840405-5.58915394c-13.44961074,10.95144628-30.59310992,19.66532121-51.38983974,26.0906601-6.68685311,2.14509935-25.24719246,6.01429861-55.66644928,11.58114932l-4.55499453,9.94200437Z"/>
  <path class="cls-1" d="M52.16423585,793.17030752c-6.72497919-28.58572353-9.98134212-49.90269162-9.82028174-63.97468964-5.55135146-34.12544246-5.85235888-71.1606049-.95576396-111.08044346,6.53628322-54.6992566,20.79479134-104.89397681,42.80092862-150.5580596l-3.05301919-24.4646088c-3.69693431-.7650021-7.04043442-.80312856-9.99231539-.11386279-26.50648297,50.7786537-41.7188721,87.24956021-45.67748881,109.4388196-9.94288372,27.2864199-15.71345368,46.45976008-17.31205827,57.54577319-4.8793527,38.44834955-7.59725186,82.11205118-8.15423711,130.96534023,8.30057273,51.17403894,16.74860467,89.41277245,25.34445622,114.68955987l17.72752425,4.64344401c6.644545,1.5731582,12.92695413,.89608604,18.90017237-2.00563103,.16817526-14.79488422-3.10959048-36.49939044-9.80791698-65.08564159Z"/>
  <path class="cls-1" d="M617.2859417,859.02886462l14.59850895-14.2692613c.02560552-2.22100387,.9760254-5.18001275,2.87666387-8.85092558,1.88856657-3.6977217,2.84794492-6.2684726,2.86431113-7.74086165,.02559351-2.22011585-1.06375437-4.09204738-3.26751602-5.58914192-17.76451493-.20213208-38.74587446-10.46117848-62.95810772-30.72492609-11.64085916-18.62284397-19.60596014-33.53663959-23.92086432-44.69021794,2.00375676-46.61503095,3.40857189-72.52658241,4.21674906-77.70797767,1.48039195-.70650798,2.06013541-2.92090348,1.74100643-6.64316248-.34523002-3.69685474,.9840283-5.90288694,3.9620103-6.61755695,12.40354998-49.44087658,45.47011887-91.28712694,99.16081292-125.48687437l.22772559-19.98463078c-2.11949382-8.90785698-6.50941451-13.40017574-13.17156213-13.47520425-2.96963071-.03395682-6.6704869,.6727103-11.12797283,2.09390031-6.60293367-5.23991045-11.08392209-18.8231448-13.4170334-40.69694933-2.36010037-21.84841228-7.20198625-35.40988342-14.52744572-40.68354942-3.17176278,17.73055811-4.84628391,35.47870682-5.04841598,53.24322175-.11822465,10.38039315,.12934965,20.37670999,.76845152,29.99107495,.7145229,.75662974,4.03043882,2.11156114,9.94845657,4.01240088,5.8919047,1.92713202,9.19092679,4.72779979,9.89759391,8.42865598-32.96504683,32.96311089-57.78360877,67.1040282-74.46846652,102.44833638-5.43419876,21.42411016-10.41418216,36.91329674-14.96482685,46.46811137-3.26438191,25.88994739-5.35204669,45.88050278-6.23474484,59.91875726,2.19541036,2.24572137,3.2320085,8.73905317,3.11013079,19.45513077-.12310211,10.74093021,1.62800691,17.99177977,5.30430474,21.72659278,2.68219566,22.98786991,16.86718913,44.99714131,42.55500444,66.02603814-123.76080289,8.94663864-216.74420254,14.93720599-278.97616685,17.9216124-4.4238775-1.52268805-11.09001456-1.23716749-19.99787154,.88232633-7.43546793,2.13586003-12.6172236,1.35432354-15.51879355-2.39754244,4.71116543-23.65257731,7.2984872-55.82582185,7.76231369-96.54548628,.25333111-22.20563465-.21323365-47.00296159-1.37361726-74.41560904-6.83707461-50.43481056-15.98777221-92.73583736-27.4384361-126.92776482-27.56285694-51.42041431-48.22456854-89.77197547-61.98353799-115.10706479-15.71628019-52.00888985-26.37643709-90.99520305-31.99430664-116.98666048-9.72850246-120.78707915-14.35693462-201.92764669-13.88386881-243.39592595,9.7393561-11.71662858,13.55912369-20.55657192,11.40602144-26.52055084-2.13619641-7.41060331-8.03751157-10.80869672-17.65064012-10.19533549-16.30136519,.56284896-24.82219157,.46622838-25.55002279-.29146958-.75290912,1.48995859-6.70845718,4.00466612-17.85278421,7.57006746-6.68774113,2.14508733-10.05587918,5.43820888-10.10707822,9.8793286,2.19541036,2.24572137,7.35506644,2.69122503,15.53204633,1.2866025,8.14999083-1.37923029,13.70614352-.56687147,16.62884547,2.4107832-.75289711,1.48907057-4.32196424,5.32215482-10.68036948,11.55113046-6.37260158,6.2278954-9.57519503,11.92490828-9.63350894,17.08891421-.03395682,2.96963071,.29353547,5.94237485,1.00855388,8.8946042,2.59399393,31.87118959,3.67419074,67.44339451,3.22707884,106.66491725-.47217779,41.46829127-4.61702377,112.87645845-12.43366194,214.22540159,2.96467368-.71573824,4.79856738,.41574956,5.5132374,3.39373156,8.37807682-21.39050174,12.23572311-34.67174501,11.55907892-39.86967467,6.38052826-39.90331618,11.17126329-70.55371354,14.37290187-92.00269738,5.74852651,15.61123247,11.02656304,39.73912168,15.84510222,72.35894716,4.79333819,32.64435373,10.07048669,56.77223092,15.83232152,72.38453162,2.8000599,12.63411743,15.00674706,30.33379839,36.5941637,53.17507643,21.57408429,22.84198586,33.41098306,41.28629221,35.47092655,55.38389575,9.39070838,20.09521195,15.50556146,35.34902079,18.35731591,45.73761812,.69299839,3.72642864,3.84263816,19.67021106,9.44858292,47.8562119,2.80448931,13.35715981,4.10353279,29.6667081,3.88468612,48.92936473,.10986134-9.63087829-2.88616266,25.50692729-8.97353928,105.38963235-10.01878825,33.94766748-16.90466,53.49583265-20.65582721,58.6436315-1.65334501,14.80410247,.10809397,22.21052412,5.29874056,22.26919844,128.95447133-10.35875753,261.88331506-13.67373383,398.8373397-9.89272683Z"/>
  <path class="cls-1" d="M558.07414883,401.88645421c1.75078605-24.43603697-10.96706825-46.0408764-38.13954579-64.8658434-30.12928342-21.05434322-46.57236303-39.7572523-49.33046321-56.08387463-3.62563842-8.20169739-5.34905158-17.82806671-5.22247564-28.95708669,.11786424-10.35375248,1.7204823-21.80209071,4.83304314-34.36865491-4.31490418-11.15357835-9.80253606-16.76831379-16.47710398-16.84439851-2.20464968-1.49710655-4.04166882-2.26625722-5.52647816-2.28367964-3.70582523-.04213992-8.91865902,3.04927721-15.65180967,9.27318318-6.73405069,6.22478197-11.21034156,9.29862957-13.43134543,9.27302404-1.49725367-.01670259-3.31782704-1.14801019-5.5132374-3.39373156-.6727103-6.6704869-.95823086-13.33662396-.88232633-19.99787154,.37867064-33.308914,11.36044411-56.50362289,32.99503764-69.5825659,7.41503272-1.41315403,11.51108155-2.8383455,12.26397866-4.32741606-5.85838785-5.98035418-14.70268104-9.41293203-26.53290359-10.29595751-11.84387926-.85834106-21.86180017,1.24880002-30.05373871,6.31964719-8.28685324,11.03638885-12.53457602,28.00631577-12.7953704,50.96058927-.16018437,14.07289805,1.63216483,34.62309705,5.40474352,61.70426277,3.74595003,27.0799173,5.56492789,47.63136472,5.40386751,61.70336274-2.36394602,12.57580351-15.69690757,27.96975203-39.95893565,46.18327419-24.27570882,18.23998262-37.56221368,31.77558876-39.88383958,40.63224671,27.41248831-3.38084786,50.4722613-12.362854,69.16724704-26.9728273,21.65168863-16.77178428,32.6327212-37.74515292,32.92000913-62.92041828,.10897332-9.63089031-1.28275684-18.89216947-4.12477646-27.833782-1.47253617-2.23771847-2.16980484-4.46672525-2.14509935-6.68685311,.74847971-2.21300097,5.26116613-8.4367478,13.53876805-18.7236338,5.20203175-2.16163375,9.20138044,3.82376905,12.01118718,17.90398324l8.42643988,40.09741227c3.52004735,16.33515382,8.93665216,28.25059978,16.26260714,35.71986539,1.44678352,2.23737008,17.60834402,13.91270501,48.46138966,34.97506315,19.10550611,12.8200635,28.55985786,28.47343589,28.34847445,46.98745366-.04195972,3.6925049-.47545902,7.7678497-1.24863221,12.20009051,3.51507831,15.58634678,5.11696414,38.20077525,4.77971358,67.79141969-1.1118313,31.82904967-.26257377,54.79656393,2.54688459,68.90253078,4.39917201,3.74281591,6.59369435,5.98852527,6.58534306,6.73715211,1.10506756-96.9828279,2.08650205-151.40906382,2.96934733-163.22596603Z"/>
</svg>