<?xml version="1.0" encoding="UTF-8"?>
<svg id="_Слой_1" data-name="Слой 1" xmlns="http://www.w3.org/2000/svg" viewBox="0 0 19.84251969 17.00787402">
  <defs>
    <style>
      .cls-1 {
        fill: #fef477;
      }
    </style>
  </defs>
  <path class="cls-1" d="M0,13.57213779C.00000006,10.1934077,.00000006,6.81467817,.00000008,3.43594864c.03252753-.13919219,.06250997-.27895251,.09796796-.41749013C.55822332,1.2201966,2.20153361,.00290946,4.18198661,.00159349,7.97923313-.00092977,11.77648557-.00063335,15.57372795,.00376192c.28876627,.00033426,.58048321,.02491669,.86572641,.06782952,1.90199229,.28614199,3.39663554,1.91283279,3.39976242,3.70858786,.00548033,3.14903234,.00387195,6.298084-.00283832,9.44711192-.00054638,.25638315-.03739373,.51830556-.10070844,.76806901-.45676898,1.80185526-2.09740729,3.00994233-4.08431394,3.01119292-3.77787319,.00237744-7.55574934,.00113017-11.33362342-.00049493-.19964351-.00008617-.400004-.01051287-.59880311-.02817793-1.68586729-.14980062-3.11169162-1.26825103-3.56536513-2.79712748-.0595565-.20070561-.10277739-.40563913-.15356443-.60861502ZM1.71647911,5.06738189c-.01811249,.00783549-.03622484,.01567098-.05433733,.02350647,0,.05206885-.00000044,.10413715,.0000003,.156206,.00003533,2.62400985-.0000646,5.24801916,.00061379,7.87202901,.00002646,.10238777-.00335573,.20632993,.01315903,.30692468,.19935111,1.21427481,1.21356647,2.02770183,2.53345031,2.02821002,3.80986228,.00146601,7.61972751,.00131687,11.42958742-.00182948,.19210244-.00015908,.38840206-.01668625,.575567-.05567202,1.18373451-.2465707,1.96270757-1.15286138,1.96377313-2.28425843,.00247289-2.62399107,.00089171-5.24798657,.00052746-7.8719804-.0000071-.05098785-.00525326-.10197459-.00955214-.18018365-.07389693,.06544525-.12499266,.10865726-.17368646,.15411359-1.70374961,1.59042191-3.40774048,3.18061899-5.11061139,4.77186118-.73615814,.68790122-1.62185452,1.08780003-2.65912919,1.15216317-1.28888255,.07997556-2.3898013-.32812055-3.3037384-1.18391278-1.68286724-1.57580155-3.36990119-3.14771933-5.05443284-4.72197036-.05466374-.05108507-.10098207-.10996198-.15119068-.16520701ZM9.94129676,1.55331245c-1.91127538,0-3.82259334-.00711629-5.733809,.00287513-1.02049988,.0053346-1.78947998,.4281063-2.28143752,1.27586529-.07345891,.12658692-.06332136,.20232049,.05000963,.30777451,2.04490098,1.90276928,4.08446502,3.81054256,6.12551208,5.71692606,1.06207511,.99200103,2.57406287,.99374655,3.63661044,.00198967,2.03718635-1.90146236,4.07167867-3.80544522,6.11212318-5.70384795,.12162215-.11315583,.14252522-.19633464,.0588479-.33731875-.49606793-.83579033-1.25940302-1.2564804-2.27265601-1.26153576-1.89835096-.00947108-3.79679535-.00272571-5.69520071-.0027282Z"/>
</svg>