<?xml version="1.0" encoding="UTF-8"?>
<svg id="_Слой_1" data-name="Слой 1" xmlns="http://www.w3.org/2000/svg" viewBox="0 0 54.606758573 45.629456275">
  <defs>
    <style>
      .cls-1 {
        fill: #683c11;
      }
    </style>
  </defs>
  <path class="cls-1" d="M0,36.411915284C.000000165,27.347312823,.000000165,18.282711843,.000000216,9.218110863c.089515999-.373430808,.17202788-.748385795,.269608534-1.120060499C1.536234629,3.273595955,6.058636502,.007805633,11.508857584,.004275085c10.450050061-.006769524,20.900116395-.005974275,31.350155065,.005817559,.794686875,.000896762,1.597494024,.066847563,2.382485389,.181975959,5.234296627,.767674047,9.347565714,5.131830124,9.356170927,9.949559097,.015081905,8.448359455,.010655623,16.896770779-.007811086,25.345118379-.001503634,.687835757-.102907804,1.390532455-.277150351,2.060608586-1.257031566,4.83409483-5.772080137,8.075202807-11.240061675,8.07855793-10.396734517,.00637829-20.79347717,.003032059-31.190214128-.001327822-.549420401-.000231183-1.100813914-.028204372-1.647910516-.075596965-4.63951904-.401891556-8.563397972-3.402518434-9.811910776-7.50425396-.163899927-.538461655-.282844129-1.088266115-.422610432-1.632818563ZM4.723762988,13.594990176c-.049845713,.021021386-.09969102,.042042772-.149536733,.063064158,0,.139692556-.00000122,.279383631,.000000814,.419076187,.000097232,7.039806553-.000177784,14.079611623,.001689147,21.119418176,.000072822,.274690312-.009234982,.553550816,.036213741,.823430736,.548615696,3.257708722,3.339743746,5.440005718,6.972073688,5.441369107,10.484768711,.003933081,20.969545559,.003532956,31.454307761-.004908201,.528667321-.0004268,1.068885286-.044766587,1.583964572-.149359282,3.257645977-.66151049,5.401385521-3.092946107,5.404317933-6.128306805,.006805409-7.039756166,.002453983-14.079524188,.00145156-21.119287764-.000019528-.136792391-.014457018-.273581817-.026287559-.483404444-.20336488,.17557933-.343980701,.291510385-.477986391,.413462581-4.688731323,4.266852326-9.378126588,8.533101501-14.064439728,12.802154515-2.025912566,1.845530983-4.463355454,2.918396728-7.317942882,3.091072929-3.547014169,.214561886-6.576750556-.880295919-9.091912122-3.176252148-4.631262885-4.227628213-9.273992606-8.444836873-13.90983596-12.668305267-.150435008-.137053213-.277903389-.295010738-.416077839-.443224477ZM27.358521026,4.167293471c-5.25984376,0-10.519804687-.019091894-15.779484088,.007713522-2.808423096,.014311881-4.924661922,1.148541994-6.278532648,3.422946301-.20215945,.339612829-.174260854,.542794121,.137626861,.825710708,5.627582368,5.104831314,11.240477453,10.223087564,16.85745383,15.337615242,2.92283842,2.661383053,7.083839752,2.666065998,10.007978392,.005337965,5.606351673-5.101325032,11.205289324-10.209412178,16.820607473-15.302528719,.334705037-.303579343,.392230431-.526735026,.16194985-.904973263-1.365182562-2.242294269-3.465886276-3.370939674-6.25436588-3.384502432-5.224275654-.025409424-10.448808424-.007312656-15.673233791-.007319325Z"/>
</svg>