<?xml version="1.0" encoding="UTF-8"?>
<svg id="_Слой_1" data-name="Слой 1" xmlns="http://www.w3.org/2000/svg" viewBox="0 0 17.007874016 22.677165354">
  <defs>
    <style>
      .cls-1 {
        fill: #fef477;
      }
    </style>
  </defs>
  <path class="cls-1" d="M16.816993188,7.367850354C15.755338166,2.221971738,10.986635237-1.066733148,6.417501287,.317257452,3.169765066,1.30092179,1.109399338,3.674374357,.247573038,7.303206794c-.338877651,1.426603171-.353769566,2.868473432,.105022634,4.286283533,.478013161,1.47742905,1.206764614,2.796389581,2.039932636,4.048580756,1.484516148,2.231410664,3.222021693,4.199802238,5.076757779,6.044704321,.334288863,.332494007,.670049602,.662958843,1.005117693,.994389951h.079394687c.021558645-.026958974,.040433281-.057493151,.065108838-.080393785,1.267977312-1.174986085,2.467902035-2.431428854,3.601072882-3.766622746,1.375770535-1.62092036,2.641669906-3.335375797,3.652155615-5.274296092,1.008754091-1.935538345,1.40598727-3.953016509,.944857385-6.188002377Zm-2.576561067,5.226562283c-.824596512,1.549223019-1.822008505,2.950509878-2.920893315,4.260580712-.893601491,1.065314276-1.828502073,2.087436217-2.76686589,3.15352351-.278963667-.288528655-.513771073-.525071907-.742431236-.768765567-1.603997793-1.709913961-3.13059226-3.499062181-4.382292363-5.552195762-.399397702-.655035417-.741652008-1.357418135-1.071352083-2.060670498-.564680644-1.204650619-.631694262-2.483414258-.324332059-3.781020191,.734985278-3.103180767,2.516560502-5.05099076,5.335894419-5.642735397,3.611635753-.758039954,6.882489074,1.919208357,7.662150098,5.706702567,.352124529,1.710880232-.013766363,3.22628375-.78987757,4.684580625Zm-5.714945609-6.857435239c-1.842874502-.012464902-3.377780736,1.685080785-3.382109781,3.740630044-.004502207,2.096905677,1.502351814,3.799089467,3.367044704,3.803824197,1.860710168,.00473473,3.374490662-1.682375225,3.377953898-3.764690203,.003463236-2.085213793-1.492914496-3.767105882-3.362888821-3.779764038Zm-.002077942,5.65007906c-.932043412,.004154967-1.682959576-.840366282-1.680275568-1.889447197,.002684008-1.033427318,.757496313-1.873310464,1.679669502-1.868962242,.925636425,.004348222,1.669712698,.841719062,1.66988586,1.879301347,.000259743,1.036712641-.744422597,1.874953125-1.669279794,1.879108092Z"/>
</svg>