<?xml version="1.0" encoding="UTF-8"?>
<svg id="_Слой_1" data-name="Слой 1" xmlns="http://www.w3.org/2000/svg" viewBox="0 0 46.364269005 57.843325724">
  <defs>
    <style>
      .cls-1 {
        fill: #683c11;
      }
    </style>
  </defs>
  <path class="cls-1" d="M45.84391884,18.79339685C42.949797035,5.667649946,29.950087301-2.720948231,17.494412043,.809238098,8.640929494,3.318300223,3.024275067,9.372336862,.67489581,18.628508582c-.923796505,3.638879491-.96439257,7.316701203,.286296668,10.933151947,1.303086485,3.768522583,3.289697416,7.132834765,5.56095285,10.326836345,4.046861235,5.691726096,8.78338353,10.712561514,13.839481825,15.418408583,.911287252,.848102434,1.826586906,1.691029002,2.739998372,2.536420268h.216433673c.058769885-.068765062,.110223037-.146649505,.177489773-.205062838,3.456566125-2.997072244,6.727617674-6.201918493,9.816695001-9.607637594,3.75041555-4.134530172,7.201317109-8.507643069,9.955948945-13.453305211,2.749911364-4.937035701,3.832787799-10.083077755,2.575725922-15.783923232Zm-7.023827335,13.331549151c-2.247889094,3.951649612-4.966881362,7.525954027-7.962493329,10.867590991-2.43599993,2.71732907-4.984583134,5.324486158-7.542607284,8.043786986-.76046815-.735958694-1.400564246-1.339316659-2.023902665-1.960913386-4.37257385-4.361528818-8.534142572-8.925162837-11.946336254-14.162152232-1.088777025-1.670818482-2.021778452-3.462407145-2.920556452-5.256214036-1.539346143-3.072738459-1.722028436-6.334519222-.884144534-9.644361588,2.003604632-7.915376243,6.860262957-12.883713603,14.545900563-14.393094394,9.845489884-1.933555243,18.761990744,4.895382312,20.887383572,14.556257373,.959908121,4.363993516-.037527758,8.229378713-2.153243616,11.949100285ZM23.24087947,14.633480293c-5.023763058-.031794599-9.207990048,4.298186091-9.21979123,9.541337229-.012273229,5.348640195,4.095482104,9.690451432,9.178723117,9.70252845,5.072383926,.012077018,9.19902115-4.291284937,9.208462095-9.602708199,.009440945-5.318817354-4.069755528-9.608869943-9.167393983-9.641157481Zm-.005664567,14.411826095c-2.540794424,.0105982-4.587827405-2.143547476-4.580510672-4.819469627,.007316733-2.63599405,2.064970777-4.778309177,4.578858507-4.767218038,2.523328675,.011091139,4.551715789,2.146998052,4.552187836,4.793590302,.000708071,2.644374022-2.029331208,4.782499163-4.550535671,4.793097363Z"/>
</svg>