<?xml version="1.0" encoding="UTF-8"?>
<svg id="_Слой_1" data-name="Слой 1" xmlns="http://www.w3.org/2000/svg" xmlns:xlink="http://www.w3.org/1999/xlink" viewBox="0 0 114.256979066 113.330685238">
  <defs>
    <style>
      .cls-1 {
        fill: url(#_Безымянный_градиент_29);
      }
    </style>
    <radialGradient id="_Безымянный_градиент_29" data-name="Безымянный градиент 29" cx="317.794564546" cy="56.768905271" fx="317.794564546" fy="56.768905271" r="50.615871104" gradientTransform="translate(-304.085189015 -6.449560439) scale(1.136626358 1.11178651)" gradientUnits="userSpaceOnUse">
      <stop offset="0" stop-color="#e0c9a7"/>
      <stop offset=".185610517" stop-color="#c3a883"/>
      <stop offset=".540098963" stop-color="#926e46"/>
      <stop offset=".800262175" stop-color="#73491f"/>
      <stop offset=".936170213" stop-color="#683c11"/>
    </radialGradient>
  </defs>
  <path class="cls-1" d="M.000723413,89.021946c-.059920466,4.593309436,3.609224658,8.04829055,8.531393636,8.039725389,4.721366806-.011405703,8.492422463-3.591914847,8.53441253-8.113905991,.041898585-4.116871027-3.974968205-7.794383062-8.555361823-7.842879065h-.075014935C4.134503724,81.104886333,.048751268,84.930748688,.000723413,89.021946m97.628095305-2.838735777c-.011892612,4.564795179,3.480327044,7.89994023,8.270670997,7.911356816,4.802236565,.011405703,8.339465181-3.30661991,8.35739558-7.834324788,.021040774-4.547664858-3.501184855-7.954139085-8.24944726-7.979823683h-.045008961c-4.526510939,0-8.324645158,3.594777156-8.333610357,7.902791655M37.393655773,48.209881611c-2.835747496,8.367824362-3.417296203,16.935357357-2.470003948,25.648400129,1.214052681,11.189440702,4.796198777,21.514420548,12.392284252,30.284524484,3.852108379,4.444959116,8.891099396,7.200949132,15.063364818,7.483403526,8.153574514,.368029816,17.85117594-7.1752863,20.057346874-16.14223656-2.257217682,2.068415503-4.454423416,4.211011609-6.789766408,6.202405968-6.786656033,5.774452679-13.192748494,6.128225366-19.457776286,.910105434-1.813531788-1.509231332-3.45928627-3.377949086-4.640497047-5.372183987-7.563060607-12.758584623-8.555270341-26.147682594-3.887877696-40.021784135,.830378735-2.473557387,2.871699775-5.688877257,1.939501989-7.309379492-1.109123254-1.934311429-4.781287272-2.587657949-7.407267395-3.666084565-1.312944321-.536372766-2.161344936-.853055153-2.772808136-.853055153-.983244535,0-1.343041776,.818816278-2.026501017,2.835884352m-10.270001971-4.878615257c-3.234424429,.245353211-6.44195326,.941471116-9.62249501,1.609074765-1.900530816,.393714414-2.790830016,1.617650809-2.835838977,3.609034285-.356686866,15.266370002,2.581062644,29.865136356,10.117136171,43.414001233,4.247766419,7.640319007,9.556628238,14.547408041,17.85117594,18.789807099,3.426352884,1.754595426,6.996514887,2.88152893,11.349119251,2.504933953-.509552666-.547778469-.659399572-.824519129-.890299201-.938630574-11.100380706-5.295162843-17.215561591-14.330590854-20.779777288-25.226171458-4.325708766-13.206497892-4.382610338-26.624131887-1.999513937-40.144460741,.467654081-2.656135699,.021040774-3.651827437-2.344125228-3.651827437-.257795227,0-.53955864,.011405703-.845381722,.034238875m77.777588392-4.424999136c-.965314136,4.944241582-1.385031843,10.065358624-3.072684911,14.775652697-3.381343923,9.471935577-10.833620279,16.139374251-18.87631906,22.133517309-8.03080617,5.985577898-16.843780256,10.71869426-26.634327016,13.600212307-2.478969148,.730367664-2.94955064,1.797388578-1.528657999,3.728870348,1.639716695,2.22818241,3.141479095,4.587606585,5.051066592,6.587555222,2.901614268,3.041295836,3.968838936,3.012759812,7.712998995,.992840312,10.80050393-5.831513843,20.285136127-13.172269901,27.938123174-22.504409435,6.358156089-7.754430452,11.400257481-16.185018829,13.01600599-26.099164824,.890299201-5.437821195,.0089652-10.62169137-3.462396645-15.423296366-.041898585,.738932824-.005854824,1.489271352-.143809119,2.20822243m-88.377290149-5.212406198c-8.234627236,2.855844332-13.045920482,9.606017885-12.17355168,17.269148298,.626466187,5.526258926,2.985685883,10.436250749,6.86459838,14.807040147-.752344906-3.206765593-1.606691827-6.39354944-2.236268389-9.623148206-1.768614308-9.038279436,2.674007978-15.169367111,12.320471174-16.284884029,4.283627217-.493557847,8.816175943-.399417265,13.048847894,.370903008,13.522539762,2.47353562,24.47298208,9.066793693,32.326862782,19.950968595,1.420892641,1.962858336,2.583990056,2.114070965,4.400632219,.718951078,1.750592428-1.343761574,3.552231604-2.633302527,5.40784494-3.837278941,2.401026801-1.552024484,2.257217682-2.941430636,.320734587-4.910002706-8.546396623-8.678803897-18.948406583-14.535980571-30.765179915-17.970990821-5.452762419-1.583411933-10.977429398-2.627599675-16.526156045-2.627599675-4.319579497,0-8.657272356,.633364773-12.988835946,2.136893254m58.949114223-11.79713176c4.097828031,1.443605007,8.321534782,2.639005378,12.26347812,4.399314538,4.475464191,1.994234902,6.966508913,5.363618827,6.930648115,10.416279885-.032933386,4.367927089-1.013250508,8.459113518-3.741049683,11.797109994-3.366523899,4.114019601-6.984622275,8.182394624-11.157465241,11.514688249-8.033733582,6.410679761-17.536296178,9.859947139-28.052109282,10.567481631-1.531859856,.102716625-2.625980123,.490717305-2.416121269,2.23674757,.341683879,2.798794051,.671475147,5.60328007,.995228628,8.402063237,.203821067,1.748892574,1.202068588,2.348018473,2.97370179,1.928630344,1.08808248-.256769797,2.209281309-.393714414,3.288398589-.68187166,11.576999986-3.055552964,21.769151092-8.547562131,30.192596407-16.635794408,6.205198807-5.95706364,11.717881693-12.538916011,14.100978094-20.898186095,1.879581523-6.593258073,1.303979121-12.929757232-3.953835949-17.939603372-4.44564118-4.230993355-9.91642548-5.420690874-15.698796204-5.420690874-1.882691898,0-3.801061631,.125528031-5.725652115,.313830961m-54.437697753,1.429347879c-5.173926418,2.10835723-9.409617262,5.289438225-11.801770345,10.339247858,6.16320874-3.440713101,12.500232573-5.974172195,19.670654034-6.190989382,17.659338967-.544927043,32.977388636,5.500552561,47.006462171,15.132255044,2.784883711,1.908670364,5.40784494,4.036987574,8.855238598,6.63037014,1.678687868-3.734562316,3.366340936-7.095391964,4.685323044-10.584601069,.926159999-2.442169938,.101910533-4.399314538-2.482079523-5.848644164-11.508022839-6.444918636-23.795469145-10.721556569-37.042283281-12.464735409-3.156482082-.41652582-6.295033766-.650473328-9.40668985-.650473328-6.63982802,0-13.156704733,1.058466637-19.484854848,3.637570308m24.991591427-15.23214201c-.0089652,4.490625461,3.435318084,7.84002764,8.000800196,7.791531636,4.793271365-.054198855,8.555361823-3.500614808,8.555361823-7.837176214C62.583121962,3.78022866,58.641178624,.014278895,54.156749234,0h-.036043761c-4.721366806,0-8.081761436,3.360829648-8.093745529,8.093935128"/>
</svg>