<?xml version="1.0" encoding="UTF-8"?>
<svg id="_Слой_1" data-name="Слой 1" xmlns="http://www.w3.org/2000/svg" viewBox="0 0 53.443325593 53.340035444">
  <defs>
    <style>
      .cls-1 {
        fill: #683c11;
      }
    </style>
  </defs>
  <path class="cls-1" d="M50.780241433,36.812363848c-1.693626934-1.329189199-3.439134883-2.595504419-5.087542068-3.978219734-2.520392552-2.114281586-6.27696239-2.214547014-8.836041526-.148285269-1.080790443,.872680577-2.181692785,1.721671366-3.235710062,2.625596853-.371493692,.318595638-.651010671,.29797912-1.062087657,.114351248-3.008330301-1.343659178-5.714725902-3.133710797-8.102149332-5.403704721-2.817331303-2.678866863-4.999664594-5.80246148-6.525735063-9.377954815-.078269878-.183243713-.080191397-.502863775,.029719495-.646283033,.83406739-1.088449729,1.673643135-2.175875035,2.570480149-3.212591389,2.147617846-2.482561753,2.272900892-6.198273023,.255049635-8.787374797-1.398225398-1.79402126-2.801318644-3.584200932-4.200696953-5.377325821C14.433298561-.137559245,10.479837065-.861186235,7.590128542,1.136183044c-1.446391476,.999837116-2.806826999,2.187399797-3.99611922,3.482654975C1.074129176,7.363524078,.054571142,10.72017499,0,14.421160175c.113497728,1.12059101,.166275453,2.251298199,.351381793,3.359852235,.599770161,3.592524371,1.914089225,6.938546892,3.677915657,10.107344186,4.399382028,7.90368167,10.456010228,14.287887517,17.931744334,19.334452674,4.010722765,2.707550715,8.313772635,4.797630301,13.109500003,5.726654158,2.795041681,.541407701,5.583678299,.558950949,8.352715422-.194768475,4.12793543-1.123536226,6.955130531-3.931352369,9.108897238-7.401330106,1.756268456-2.829329032,.866861316-6.485751805-1.751913013-8.541000999Zm-2.327343933,6.68538629c-.845596505,1.096517063-1.745379848,2.179332464-2.769293326,3.104514734-1.864898336,1.685432393-4.166622014,2.268585342-6.643844437,2.249889617-3.059314608-.032013227-5.914051483-.905462122-8.661055187-2.164478326-5.928526927-2.717282736-10.933187471-6.697167158-15.383041401-11.406440951-3.223924744-3.411969769-6.003722374-7.148297557-8.056545278-11.39363566-1.169308422-2.418279193-2.054488221-4.92875648-2.332724186-7.613385724-.315641537-3.047403136,.125026843-5.955356654,2.089972273-8.413076143,.75964055-.950024534,1.801744409-1.67211489,2.699990537-2.514062769,.554166108-.5193826,1.163800068-.865893773,1.950085683-.831319487,.716470421,.031629069,1.306632987,.29708275,1.751784912,.872936683,1.380803625,1.786081979,2.769805731,3.565761313,4.14702252,5.354532404,.714933206,.928639698,.677271432,2.138483586-.074042536,3.075574776-1.19518488,1.490535865-2.379865455,2.989651274-3.589910082,4.468022112-.670482064,.819026408-.803323085,1.669553832-.406593441,2.661067509,3.670870087,9.173326266,10.084644637,15.593771086,19.258233018,19.271066483,1.035570693,.415147532,1.901407199,.2618682,2.748540919-.43794095,1.459457806-1.205362036,2.949916121-2.373332621,4.4267957-3.55769398,.946540308-.759097646,2.163502404-.762683128,3.117600688-.019976254,1.726805164,1.344043336,3.456556657,2.684373138,5.188229669,4.022013829,1.057091707,.816593403,1.351980838,2.21787639,.538793955,3.272392098ZM28.885556109,2.427724688c-.095051145-1.037996883,.633460796-2.063060422,1.695932757-2.318654029,.364704325-.087716243,.75656612-.062745926,1.171486144-.091685883,6.806276851,.348560019,12.44324528,3.097855982,16.772299709,8.422424005,2.492466474,3.065842755,3.994453903,6.594468725,4.599476217,10.49175902,.161663807,1.041326259,.155002541,2.108006993,.24851647,3.160986067,.108886082,1.226106607-.815877009,2.401504262-2.219738863,2.431468642-1.2776821,.02727527-2.242156586-1.013282672-2.255479118-2.415718134-.024211141-2.550429795-.532132689-4.999825845-1.651865919-7.289539916-2.769037123-5.662627703-7.263085992-9.061792181-13.499312177-10.096203583-.868526633-.144059523-1.760367697-.155072073-2.642601166-.207061554-1.189292221-.070044941-2.112518098-.928511646-2.218714053-2.087774634Zm-.004483545,8.688389898c.032281521-1.269772649,1.065162087-2.208144368,2.418936343-2.19764403,.034715445,.000256106,.06943089,0,.104146335,.000640265,6.411981132,.102698433,11.908166262,4.905450851,12.90095113,11.287735904,.101071905,.649356303,.167812668,1.309340998,.1811352,1.965740211,.026516964,1.30460304-.957300815,2.331331267-2.20436671,2.356045479-1.249499819,.024714212-2.228577851-.967951942-2.258553549-2.289970178-.099662791-4.397464959-3.071740432-7.89753513-7.417063722-8.715537115-.458090153-.086307661-.930527649-.116272042-1.397584891-.131382285-1.366456282-.04443436-2.359753555-1.005343391-2.327600135-2.275628252Z"/>
</svg>