<?xml version="1.0" encoding="UTF-8"?>
<svg id="_Слой_1" data-name="Слой 1" xmlns="http://www.w3.org/2000/svg" viewBox="0 0 18.435611542 18.435611542">
  <defs>
    <style>
      .cls-1 {
        fill: #fef477;
      }
    </style>
  </defs>
  <path class="cls-1" d="M17.5169639,12.723246886c-.584227271-.459400065-1.186351224-.897069356-1.754979658-1.374969346-.869425274-.730747059-2.165277684-.765401225-3.04804814-.05125099-.372825466,.301619599-.752588658,.595051433-1.116178552,.907470032-.128149087,.110114389-.224570228,.10298882-.366373822,.039522568-1.037742472-.464401241-1.971330669-1.08308655-2.794887408-1.867651573-.971856166-.925881441-1.72466577-2.005471593-2.251093384-3.241248915-.026999687-.063333477-.027662527-.173801932,.010251927-.22337111,.287716796-.376194658,.577333734-.75203525,.886703306-1.110349598,.740834293-.858033628,.784051468-2.142273674,.087980977-3.03713012-.482326652-.620057313-.966332498-1.23878688-1.449056854-1.858534385C4.978857183-.047543815,3.615085757-.297646876,2.618262614,.392692451c-.498941844,.345567987-.96823264,.756018488-1.378486477,1.203690131C.37052762,2.545012735,.018824659,3.705152802,0,4.984303156c.039151756,.387303465,.057357764,.778103327,.121211361,1.161246522,.206894492,1.241663662,.660277126,2.398130299,1.268720155,3.493343594,1.517594521,2.731704316,3.60686654,4.938240888,6.185668073,6.682456356,1.383524062,.935795276,2.867888198,1.658177536,4.522204539,1.979270741,.96416722,.187123649,1.926124974,.193187021,2.881321758-.067316715,1.423957308-.388321403,2.399216053-1.358770847,3.142171435-2.558079416,.605835858-.97788482,.299029267-2.241633322-.604333421-2.951977352Zm-.802831938,2.310631848c-.291693837,.378982924-.602079764,.753230222-.955285163,1.072995681-.643308419,.582526363-1.437302489,.784078184-2.291835956,.777616487-1.05532983-.011064549-2.040089283-.312949697-2.987685501-.748096271-2.045082678-.939158899-3.771471833-2.314703602-5.306476954-3.942342983-1.112113132-1.179259607-2.071021821-2.470625223-2.779156003-3.937917164-.4033603-.835816014-.708708643-1.703497928-.80468789-2.631370987-.108882535-1.053256526,.043128796-2.058315878,.72094909-2.907763415,.262042789-.328351549,.621523074-.577923511,.93137873-.868921144,.191163087-.179511239,.401460158-.299273915,.67269433-.287324202,.247150981,.010931774,.450731273,.102679013,.604289231,.301708116,.476316901,.617313305,.95546192,1.2324137,1.43054152,1.850656426,.246620709,.320960431,.233629043,.739111858-.025541439,1.062993329-.412286547,.515165391-.820949568,1.03329608-1.238362078,1.544256942-.231287008,.283075416-.277111354,.577038347-.140256967,.919729552,1.266289741,3.17052432,3.478761642,5.389585962,6.643248693,6.660548549,.357226629,.143485068,.655902381,.090508009,.94812649-.151363027,.503449156-.41660239,1.017592133-.820281387,1.52705104-1.229625433,.326515037-.26236258,.746313772-.26360181,1.07543598-.006904278,.59567231,.464534015,1.192360975,.927784543,1.78971248,1.390105649,.364650438,.28223451,.4663743,.766551938,.185860366,1.131018175ZM9.964254389,.839080606c-.032788491-.358756929,.218516289-.713043781,.585022679-.801383138,.125807052-.030316864,.260982245-.021686516,.404111519-.031688868,2.347868039,.120470807,4.292375779,1.070694255,5.785710352,2.910994264,.859791998,1.059629706,1.377912015,2.279208529,1.586618271,3.626206696,.055766948,.359907642,.053469102,.728578407,.085727321,1.092513545,.037560939,.423772218-.28144191,.83001819-.765712892,.840374608-.440744482,.009426996-.773446027-.350215098-.778041718-.83493085-.008351785-.881490471-.18356252-1.728061226-.569821546-2.519442012-.955196784-1.957141644-2.505447228-3.131975432-4.656672702-3.489493131-.299603729-.049790469-.607249917-.053596674-.911581905-.071565501-.410253837-.024209233-.728726414-.320916172-.765359377-.721585612Zm-.001546627,3.002918535c.011135714-.438864262,.367434366-.763188316,.834427317-.759559144,.011975311,.000088516,.023950623,0,.035925934,.000221291,2.211853249,.035495072,4.107796904,1.695442936,4.450264292,3.901315636,.03486539,.224433307,.057888036,.452540044,.062483727,.679407552,.009147193,.450902491-.330226942,.805764699-.760410171,.814306531-.431022827,.008541832-.768761957-.334547696-.779102262-.791469302-.034379307-1.519870677-1.059616196-2.729579922-2.558562815-3.012301272-.158021082-.029830023-.320991369-.040186441-.482105705-.045408908-.471367695-.015357594-.814011841-.347471089-.802920317-.786512384Z"/>
</svg>