<?xml version="1.0" encoding="UTF-8"?>
<svg id="_Слой_1" data-name="Слой 1" xmlns="http://www.w3.org/2000/svg" viewBox="0 0 19.03433249 19.03111856">
  <defs>
    <style>
      .cls-1 {
        fill: #fef477;
      }
    </style>
  </defs>
  <path class="cls-1" d="M18.59642614,6.57799356c-.44921875-1.57421875-1.25488281-2.90478516-2.39355469-3.95410156C14.58861364,1.13561075,12.66087926,.26842325,10.47337926,.04674356c-1.01806641-.10302734-2.07177734-.03564453-3.13330078,.20117188-1.85742188,.41259766-3.45410156,1.31054688-4.74511719,2.66943359C1.15501989,4.43248575,.32494176,6.2723295,.05638708,8.54137247c-.09033203,.76660156-.07226562,1.56298828,.05517578,2.43505859,.15917969,1.09667969,.49414062,2.125,.99462891,3.05761719,1.00878906,1.87597656,2.52392578,3.27539062,4.50439453,4.16015625,1.24707031,.55664062,2.55615234,.83691406,3.90625,.83691406,.37841797,0,.76025391-.02246094,1.14501953-.06640625,1.25097656-.14355469,2.44824219-.53222656,3.55664062-1.15527344,1.54980469-.87109375,2.78125-2.07910156,3.66113281-3.59277344,.80273438-1.38085938,1.18066406-2.94335938,1.15332031-4.77636719v-.00048828c-.01464844-.93261719-.16210938-1.89550781-.43652344-2.86181641Zm-.64648438,3.25976562c-.0234375,1.40429688-.33105469,2.61621094-.93847656,3.70703125-.69140625,1.24316406-1.6640625,2.27148438-2.88964844,3.05566406-.95605469,.61230469-2,1.01855469-3.10058594,1.20996094-.31152344,.05371094-.63085938,.08496094-.88769531,.109375-.09863281,.00878906-.18798828,.01757812-.26611328,.02636719-.90185547-.00097656-1.58300781-.06445312-2.25244141-.22265625-1.94970703-.46191406-3.55859375-1.47851562-4.78271484-3.02246094-.81640625-1.03027344-1.35693359-2.24511719-1.60498047-3.61035156-.13916016-.76123047-.17822266-1.45996094-.11962891-2.13525391,.17285156-1.98046875,.81689453-3.60107422,1.96923828-4.95410156,1.11572266-1.31005859,2.52685547-2.19091797,4.19482422-2.6171875,.76513672-.1953125,1.53076172-.29394531,2.28027344-.29394531,.13085938,0,.26123047,.00292969,.39111328,.00878906,1.78125,.08251953,3.42480469,.68212891,4.88476562,1.78173828,1.39941406,1.05517578,2.33789062,2.48144531,2.79101562,4.23876953,.234375,.91210938,.34570312,1.82666016,.33105469,2.71826172Zm-4.27441406-4.89892578c-.08984375,.02392578-.17480469,.05810547-.28515625,.10205078L3.54320348,8.96324747c-.14453125,.05810547-.25292969,.11621094-.34082031,.18359375-.14697266,.11181641-.23095703,.26123047-.23583984,.42041016-.00537109,.15966797,.06982422,.31445312,.21044922,.43603516,.08300781,.07226562,.18603516,.13378906,.29785156,.17773438,.59863281,.23632812,1.19775391,.46875,1.796875,.70166016l.50048828,.19433594c.12597656,.04980469,.19580078,.12304688,.22558594,.23925781,.03955078,.15332031,.08105469,.30566406,.12255859,.45800781l.29394531,1.10351562c.0859375,.32421875,.17138672,.64941406,.25830078,.97265625,.08154297,.30761719,.2421875,.4296875,.36230469,.47851562,.11962891,.04882812,.32128906,.07324219,.59716797-.09082031,.03027344-.01855469,.05908203-.03808594,.08837891-.05859375l.29150391-.20996094c.33056641-.23730469,.66113281-.47460938,.98876953-.71582031l-.08392334-.11413574h.00006104l.1307373,.11022949c.61425781,.41992188,1.22949219,.83886719,1.84667969,1.25390625l.14941406,.1015625c.25195312,.17089844,.51171875,.34863281,.78417969,.50097656,.09570312,.0546875,.1953125,.08203125,.29101562,.08203125,.06054688,0,.12011719-.01074219,.17578125-.03320312,.15234375-.05957031,.26855469-.19433594,.328125-.38085938,.04199219-.12988281,.06640625-.26367188,.09082031-.39257812l.74804688-3.90820312c.25195312-1.31103516,.50488281-2.62158203,.75878906-3.93212891l.18554688-.94287109,.00292969-.02636719c.00195312-.21923828-.0859375-.4140625-.24121094-.53417969-.13964844-.10888672-.3203125-.14453125-.4921875-.09912109Zm-.78027344,2.26074219l-1.22265625,6.41357422-3.19580078-2.1640625,4.41845703-4.24951172Zm-4.90771484,5.33642578l-.37890625,.27441406-.17236328-.65039062,.55126953,.37597656Zm-.83496094-1.43652344c-.03857422-.14355469-.07519531-.28125-.10595703-.41992188-.06347656-.28466797-.23632812-.47460938-.52832031-.58056641-.39794922-.14453125-.79345703-.29541016-1.20019531-.45068359l-.17871094-.06787109,6.11425781-2.43359375-4.10107422,3.95263672Z"/>
</svg>