<?xml version="1.0" encoding="UTF-8"?>
<svg id="_Слой_1" data-name="Слой 1" xmlns="http://www.w3.org/2000/svg" viewBox="0 0 98.423485312 100.619312441">
  <defs>
    <style>
      .cls-1 {
        fill: #683c11;
      }
    </style>
  </defs>
  <path class="cls-1" d="M96.159141707,34.778470192c-2.322838223-8.32304248-6.488798079-15.35787212-12.376688009-20.905706577C75.435385042,6.004080775,65.467379277,1.419178962,54.156167062,.24713762c-5.264258363-.544715249-10.71282889-.188455987-16.201796604,1.06361461-9.604431086,2.181442585-17.860606074,6.928984496-24.53624114,14.11354629C5.972422885,23.434968748,1.680221822,33.162395567,.291568536,45.159038992c-.467092469,4.053094508-.373673975,8.263665936,.28530513,12.874383638,.823092675,5.798248576,2.555122045,11.235074712,5.143066804,16.165909432,5.216286705,9.918464395,13.050816058,17.317298063,23.291502831,21.995137075,6.448400892,2.943011299,13.217454452,4.424843304,20.198593241,4.424843304,1.95673872,0,3.93115121-.118753088,5.920712644-.351096085,6.468599486-.758987124,12.659468314-2.813931856,18.390819146-6.108039239,8.013791868-4.605554524,14.381398388-10.99240536,18.931131515-18.995330821,4.150810911-7.300733292,6.105024807-15.561817639,5.963634654-25.253102214v-.002581589c-.075744725-4.93083472-.838241619-10.021727949-2.257192795-15.1306923Zm-3.342867181,17.23468722c-.121191559,7.424649557-1.711830777,13.832153104-4.852712026,19.599422614-3.575151004,6.572725234-8.604600721,12.00955137-14.94190935,16.155583077-4.943605696,3.237312429-10.34167974,5.385194359-16.032633385,6.397177192-1.610837811,.283974774-3.262072808,.449196461-4.590130314,.578275904-.510014479,.046468599-.9720573,.092937199-1.376029165,.139405798-4.663350215-.005163178-8.185479911-.340769729-11.647013828-1.177204519-10.081622852-2.44218306-18.400918443-7.817051064-24.7306526-15.980035034-4.221505987-5.447152492-7.016486327-11.870145572-8.299096998-19.08826802-.719574884-4.02469703-.921560817-7.718950687-.618581918-11.289288078,.893787751-10.47092441,4.224030812-19.039217832,10.182615818-26.192800559,5.769223195-6.926402908,13.065965003-11.583589208,21.690764317-13.837316282,3.956399451-1.032635543,7.915323726-1.554116493,11.790928805-1.554116493,.676652874,0,1.350780923,.015489533,2.022384148,.046468599,9.210558518,.436288517,17.709116624,3.606479635,25.258340848,9.420217745,7.236146029,5.578813523,12.088858055,13.119634579,14.431894871,22.410772881,1.211915594,4.822407988,1.787575502,9.65772392,1.711830777,14.371705176Zm-22.102351665-25.90101968c-.464380311,.126359824-.903934259,.307146676-1.474304045,.539495975L18.321383957,47.389604354c-.747337197,.307146676-1.307840095,.614293352-1.762353518,.970615325-.760068666,.591217565-1.194211739,1.381205182-1.219356389,2.222755245-.028009231,.844096357,.36093713,1.662570634,1.087903978,2.305350647,.429368773,.382103196,.962180727,.707392215,1.540189394,.939741514,3.09565655,1.249434484,6.193541107,2.478339474,9.291425664,3.709631615l2.587989246,1.027588646c.651532897,.26322311,1.012470027,.650578037,1.166520795,1.264871389,.204340068,.810676253,.419183598,1.616100774,.633708841,2.421525296l1.519819044,5.834513697c.444328248,1.714133081,.88642849,3.433517894,1.335849326,5.142399244,.421411605,1.626445093,1.252139921,2.271930542,1.873117294,2.530061065,.618749366,.258130523,1.661456631,.387195784,3.088017669-.480294647,.156597062-.098032307,.305555242-.201316345,.457059717-.30969297l1.507405863-1.110184048c1.709199637-1.254527071,3.418399275-2.509213285,5.112639437-3.784588136,.080844825-.006843164,.161371362-.013686329,.242216187-.020529493,3.176501375,2.220049808,6.35777705,4.435166173,9.548919613,6.629434758l.772800134,.536949681c1.302747508,.903615972,2.645917428,1.843357486,4.05465441,2.648782008,.494935835,.289163477,1.009923734,.433665644,1.504859569,.433665644,.313194124,0,.62129566-.056814178,.909026846-.175535121,.787759609-.3149447,1.38868492-1.027429503,1.696786456-2.013640876,.217071537-.686703579,.343113074-1.394095794,.469472899-2.075547642l3.868138397-20.663014127c1.302747508-6.93164799,2.610587603-13.860590542,3.923520285-20.789533095l.959316147-4.985165609,.015277762-.139409579c.010185175-1.159041058-.444328248-2.189175997-1.24736562-2.824157986-.722192547-.57578066-1.656364043-.764206393-2.54502054-.524059069Zm-4.034627989,11.952695077l-6.322159685,33.909169657-16.524974095-11.441601821,22.84713378-22.467567836Zm-29.694456889,20.619150213c-.199461108-.758987124-.38882292-1.486995183-.547886842-2.220166418-.32822714-1.505066305-1.222014891-2.509304371-2.731859736-3.069509153-2.057731686-.764150302-4.102839252-1.561861259-6.206017773-2.382806516l-.924085641-.358840851,31.615848071-12.866638871-21.205998079,20.89796181Z"/>
</svg>