<?xml version="1.0" encoding="UTF-8"?>
<svg id="_Слой_1" data-name="Слой 1" xmlns="http://www.w3.org/2000/svg" viewBox="0 0 20.12598427 20.12598427">
  <defs>
    <style>
      .cls-1 {
        fill: #fef477;
        stroke: #fef477;
        stroke-miterlimit: 10;
        stroke-width: .28346458px;
      }
    </style>
  </defs>
  <path class="cls-1" d="M9.87151205,19.98323524c-1.75512607-.04841218-3.41871487-.49725821-4.93052798-1.4588553-.10477133-.0666407-.192729-.07862563-.3129884-.03367968-.93318721,.34878174-1.8689839,.69061512-2.80506259,1.03161271-.22906211,.08344382-.45987678,.05731204-.68214809-.02854782-.16502763-.0637482-.25455814-.2695526-.1931103-.46419793,.15804817-.50064107,.32555421-.99830824,.4907983-1.49666231,.17209645-.51901848,.34394368-1.03813821,.5209622-1.55548412,.03128891-.09144336,.02253405-.15943304-.03467388-.23798025-.56257086-.77242111-.98926616-1.61570653-1.2830896-2.52380226-.40469645-1.25076192-.56573639-2.53244403-.47566571-3.846437,.09706801-1.41606632,.47334816-2.75283551,1.15441791-3.99531797C2.54843049,3.1336192,4.36824539,1.57154196,6.77534473,.70518222c1.20793802-.43475895,2.45934153-.61478524,3.73978093-.55093731,2.0958218,.10450612,3.98392996,.79283749,5.63982834,2.08569021,1.61763002,1.26297515,2.74426116,2.87751758,3.36820042,4.83278141,.38267774,1.19921702,.52624271,2.43030119,.43411464,3.6892989-.1534369,2.09675125-.89337282,3.96163977-2.22173804,5.58564463-1.17624101,1.43802413-2.64937864,2.46698653-4.40525141,3.08312519-1.11042418,.38964801-2.25597503,.56873299-3.45876757,.55245001Zm-7.66203963-1.76360828c.09162365-.03247464,.14602054-.05009766,.19919411-.07085538,.69096154-.2697273,1.37989844-.5447949,2.0736889-.8070279,.21364852-.08075381,.4274142-.06761943,.63411404,.06536816,.608197,.39131164,1.25689056,.70223476,1.94281683,.93289442,1.712307,.57579649,3.44813405,.68184431,5.20195339,.22230972,1.79748937-.47097754,3.30343612-1.42175107,4.51677183-2.82753283,1.30349774-1.51024436,2.03382982-3.26473738,2.15574248-5.25566316,.10671454-1.74274732-.28838504-3.37746208-1.16002015-4.89366168C16.0143957,2.52511084,12.5728618,.68747135,8.96890478,1.14571162c-2.01158968,.25577214-3.7467177,1.09211442-5.17646034,2.52241668-1.71526202,1.71593386-2.58483874,3.80402398-2.61574934,6.23269479-.01364117,1.07175536,.16954358,2.11262924,.52905078,3.12338,.28521454,.80187718,.68258102,1.54367192,1.17386587,2.23662962,.1624817,.22918165,.21793013,.45110921,.10762607,.73961891-.27425334,.71733949-.51078742,1.44908889-.7777654,2.21917535Z"/>
  <path class="cls-1" d="M13.47094535,16.26804013c-.53897831-.02235187-1.07971216-.10370422-1.60451509-.26615184-1.26944543-.39294842-2.46845084-.94059605-3.573805-1.68120053-1.76091694-1.17983789-3.12951061-2.69060616-3.93913586-4.67552928-.22158319-.54325378-.43277614-1.08656266-.51816207-1.66978538-.13386979-.91432729-.04148951-1.79188959,.51544138-2.56025176,.44553756-.61467855,1.00583256-1.10449702,1.73511211-1.36773307,.62020178-.22386467,1.17521031,.07389032,1.38514419,.44577484,.14010155,.24818739,.22875628,.52536236,.34093205,.78935381,.25815163,.60751963,.52413566,1.21185021,.77270332,1.82326092,.22422842,.55154863,.09905292,1.05103025-.27567127,1.49625315-.12198614,.14493974-.25999852,.27629644-.38499132,.41885289-.03215576,.03667442-.08724871,.10452115-.08583474,.19566522,.00123523,.07950409,.04532627,.14050222,.07248947,.17185767,.21482318,.33791843,.48812725,.70830505,.83511631,1.08059452,.84901764,.91092855,1.7684316,1.43547984,2.42815288,1.73451229,.10134862,.06636326,.27951598,.15902505,.47885705,.12381078,.1667087-.02944962,.29032725-.1219784,.34335883-.20312826,.27515097-.42102773,.62380024-.76300598,1.10705409-.94063774,.30759667-.11306465,.61211518-.12031476,.91168085,.03844327,.56920774,.30165992,1.17507924,.5485797,1.70378646,.9090247,.91216541,.62186699,1.11956925,1.24275526,.7012505,2.30268239-.45112192,1.1430523-1.3829597,1.67003651-2.56528352,1.80916445-.12363444,.01454787-.24873845,.01663337-.38368062,.02516695ZM4.63404998,7.32720633c.00156092,.68731456,.25766707,1.22217299,.4627474,1.59017235,1.46986683,2.63756191,3.54774199,4.26936906,3.54774596,4.26937104,.88547487,.69538557,2.84262295,2.20040159,4.81548351,2.18287287,.39521475-.0035119,1.11306343-.02001226,1.6051625-.52042,.29885869-.30390523,.41194798-.68205564,.54951155-1.14203288,.06051844-.20236592,.09321039-.37401812,.02055013-.54287609-.06167026-.1433168-.15864195-.240163-.39227958-.35080962-.46492395-.22018151-.93272746-.43429412-1.39711522-.65558042-.21601075-.10293097-.42901881-.09906272-.61319154,.04499855-.15501569,.12125279-.32188723,.2566981-.41377501,.42411081-.36735649,.66931434-1.11947393,.86970792-1.84932939,.69334077-.6850773-.16554857-1.25960329-.56575901-1.80735929-.99826443-.81722729-.64527799-1.43983996-1.46846171-2.06661906-2.2842891-.41273042-.53721914-.40160936-.96571982-.00299872-1.51313319,.1266689-.17395707,.2906291-.32057236,.43533795-.48166206,.16151754-.17980014,.22703649-.39133839,.12699062-.61525514-.34898688-.78108213-.70793108-1.55774536-1.0693656-2.33316657-.035643-.07647094-.1368407-.07408145-.14434742-.07662158-.20038963-.06780479-.39362206,.01068924-.47674405,.04445391-.23338741,.09480462-.80927176,.44903444-1.12795374,1.22395078-.17355212,.42201787-.20299116,.80385438-.202451,1.04083999Z"/>
</svg>