<?xml version="1.0" encoding="UTF-8"?>
<svg id="_Слой_1" data-name="Слой 1" xmlns="http://www.w3.org/2000/svg" viewBox="0 0 98.666666667 101.169236538">
  <defs>
    <style>
      .cls-1 {
        fill: #683c11;
      }
    </style>
  </defs>
  <path class="cls-1" d="M48.381201168,101.164052609c-8.727341154-.246834768-16.999514464-2.535324868-24.516985152-7.438131819-.520974054-.33977485-.958342424-.400881284-1.556330678-.171719505-4.640261067,1.778301481-9.293497727,3.521176008-13.948136621,5.259789179-1.139008316,.425447346-2.286731216,.292211635-3.391972375-.145554169-.820597704-.325027116-1.265786981-1.374343113-.960238402-2.366763423,.785892434-2.552572733,1.61881399-5.08998273,2.440488056-7.630894934,.855747344-2.646271964,1.710255391-5.29306015,2.590477629-7.93080434,.155583693-.466233891,.112050279-.812886632-.172415429-1.213368097-2.797376144-3.938272715-4.919112904-8.237854807-6.38014604-12.867879277C.473594395,60.281581053-.327174548,53.746785938,.120700697,47.047250429c.482669389-7.219967578,2.353717474-14.035630111,5.740327788-20.370561537C11.96727494,15.254459594,21.01628048,7.290039503,32.985550124,2.872810509,38.992005966,.65614492,45.214593336-.261738662,51.581561346,.063796926c10.421446177,.532835773,19.810039012,4.042367859,28.043971843,10.634117495,8.043643868,6.439415634,13.645802316,14.671335161,16.748332044,24.640459637,1.902860015,6.114337908,2.616734939,12.391153947,2.158629317,18.81029018-.762962959,10.690513409-4.442284508,20.198849623-11.04756303,28.479014335-5.84884286,7.331921813-13.174000234,12.57819814-21.905054343,15.719647816-5.521569542,1.986662578-11.217805985,2.899746756-17.198676008,2.81672622Zm-38.09939073-8.991947879c.455597402-.165575459,.726085215-.255428335,.990490101-.361263828,3.435797099-1.375233848,6.861526756-2.77769584,10.311390624-4.114719188,1.062364425-.411732054,2.125311468-.34476499,3.153123682,.333286657,3.024251543,1.995144802,6.249871667,3.580419997,9.660631004,4.756463268,8.514423899,2.935760784,17.145800956,3.476457071,25.866644438,1.133470195,8.937992123-2.401330007,16.426292412-7.248951887,22.459588181-14.416482514,6.481625258-7.700144507,10.11319188-16.645617283,10.719400972-26.796568068,.530636625-8.885586042-1.433990773-17.220356342-5.768184829-24.950864278C78.926608836,12.151913773,61.813627048,2.782509735,43.892998463,5.118897392c-10.002603084,1.304081975-18.630504182,5.568263683-25.739880586,12.860814763-8.529117723,8.748874694-12.853076464,19.395228405-13.006778993,31.778069671-.06783056,5.464460812,.843053184,10.771469059,2.630698021,15.924891341,1.418225525,4.088457693,3.3941251,7.870578519,5.837032502,11.403698471,.807938106,1.168507452,1.083654669,2.300029164,.535169196,3.771027128-1.363721117,3.657433132-2.539883675,7.388336706-3.867428164,11.314705964Zm55.997525211-9.950376948c-2.680062524-.113963433-5.368854443-.528747211-7.978430064-1.35700397-6.312300598-2.003490115-12.274339158-4.795730879-17.770698067-8.571783073-8.756136212-6.015531337-15.561450132-13.718347026-19.587300974-23.838692642-1.101819501-2.76983828-2.151973624-5.539957445-2.576554018-8.513581657-.665665746-4.661796768-.206306019-9.136143224,2.563025431-13.053721018,2.215429611-3.134005172,5.00148911-5.631397721,8.627822005-6.973535243,3.083945167-1.141398268,5.843717733,.376737825,6.88761118,2.272831302,.696653123,1.265410282,1.137487572,2.678616892,1.695280115,4.024605927,1.283655565,3.09750466,2.606257661,6.178749616,3.842257049,9.296093368,1.114972843,2.812130466,.492539327,5.358791621-1.370771767,7.628808793-.606574456,.738990969-1.292839204,1.408727315-1.914364231,2.135566841-.159894077,.186988497-.433843033,.532912408-.426812118,.997620348,.006142176,.405360209,.22538429,.716365802,.360452916,.876234969,1.068205405,1.722913741,2.427206314,3.611370022,4.152604817,5.509528227,4.221728986,4.644467929,8.793502763,7.318949516,12.073958067,8.843598868,.50395469,.338360258,1.389889537,.810806456,2.381110368,.631262679,.828956782-.150152062,1.443648391-.621920087,1.70734722-1.035671422,1.368184548-2.146655476,3.101838452-3.890268677,5.504811808-4.795943441,1.529520358-.576472372,3.043734651-.613437863,4.533320989,.196007186,2.830377966,1.5380458,5.84306599,2.796993036,8.472055628,4.634760945,4.53573046,3.170656249,5.567043309,6.336322358,3.486958821,11.740475656-2.243197777,5.827976009-6.876748811,8.514862088-12.755838368,9.224220945-.614770608,.074173909-1.236848628,.084807054-1.907846809,.128316409ZM22.33799027,36.635917926c.007761657,3.50434774,1.281246094,6.23138141,2.301005332,8.107666004,7.308893365,13.447895168,17.641100126,21.767840714,17.641119875,21.767850836,4.403012056,3.545498672,14.134905036,11.218985909,23.944928075,11.129613839,1.96520012-.017905792,5.534693198-.102034674,7.981649275-2.653417735,1.486070881-1.549493766,2.048405869-3.477534601,2.732438894-5.822778369,.300927132-1.031784579,.463487427-1.906971923,.102185271-2.767912572-.306654563-.730716246-.788845015-1.224497059-1.950605045-1.788640853-2.311828202-1.122619276-4.637974981-2.214295643-6.947136965-3.342547804-1.074110584-.524804698-2.133290348-.505082009-3.049086836,.229429982-.770813481,.618220501-1.600580004,1.308803075-2.05749076,2.162374919-1.826675285,3.412571699-5.566569315,4.434300086-9.195765926,3.535073027-3.406537788-.8440673-6.263360687-2.884583637-8.987070185-5.089759371-4.063651887-3.290019761-7.15958516-7.48711112-10.276235934-11.646695462-2.052296572-2.739069975-1.996997237-4.923827134-.014911071-7.714873504,.629859426-.886938969,1.445149373-1.634472894,2.164712221-2.455806214,.803143843-.916730502,1.128935925-1.995281185,.631459157-3.136944976-1.735332634-3.982431884-3.520177922-7.942333494-5.317406311-11.895902537-.177234369-.389895397-.680438568-.377712323-.717765619-.390663403-.996434768-.345710084-1.957280465,.054500249-2.370603495,.226653078-1.160515795,.483371616-4.024093113,2.289450752-5.608735058,6.240445648-.862985623,2.151703816-1.009370863,4.098538648-1.006684895,5.30683547Z"/>
</svg>